<ttFont>
          <CharString index="0">
            -90 callgsubr
            225 -106 callgsubr
            return
          </CharString>
          <CharString index="1">
            -102 callsubr
            317 59 -161 -103 callsubr
            return
          </CharString>
          <CharString index="2">
            24 -98 callsubr
            return
          </CharString>
          <CharString index="3">
            122 callgsubr
            -28 vhcurveto
            -360 -4 callsubr
            202 -88 callsubr
            return
          </CharString>
          <CharString index="4">
            -55 callsubr
            113 -12 callgsubr
            -211 199 -23 callsubr
            return
          </CharString>
          <CharString index="5">
            vlineto
            -103 callgsubr
            return
          </CharString>
          <CharString index="6">
            -101 callgsubr
            189 return
          </CharString>
          <CharString index="7">
            -96 callgsubr
            -252 hlineto
            -98 callgsubr
            return
          </CharString>
          <CharString index="8">
            -93 callgsubr
            endchar
          </CharString>
          <CharString index="9">
            7 -87 callgsubr
            return
          </CharString>
          <CharString index="10">
            -83 callgsubr
            -91 callsubr
            return
          </CharString>
          <CharString index="11">
            -72 callgsubr
            106 return
          </CharString>
          <CharString index="12">
            -25 callgsubr
            -141 -62 callgsubr
            vlineto
            endchar
          </CharString>
          <CharString index="13">
            -73 callgsubr
            -112 -107 callgsubr
            return
          </CharString>
          <CharString index="14">
            -92 callsubr
            -87 return
          </CharString>
          <CharString index="15">
            hlineto
            14 11 3 6 7 hvcurveto
            return
          </CharString>
          <CharString index="16">
            270 -88 callgsubr
            return
          </CharString>
          <CharString index="17">
            8 24 hvcurveto
            return
          </CharString>
          <CharString index="18">
            -8 -26 vhcurveto
            return
          </CharString>
          <CharString index="19">
            -86 callsubr
            165 hlineto
            return
          </CharString>
          <CharString index="20">
            -85 callsubr
            189 return
          </CharString>
          <CharString index="21">
            vlineto
            53 24 -77 callgsubr
            return
          </CharString>
          <CharString index="22">
            -103 callgsubr
            429 -76 callgsubr
            return
          </CharString>
          <CharString index="23">
            26 7 196 callgsubr
            -7 -8 -26 vhcurveto
            return
          </CharString>
          <CharString index="24">
            -98 callgsubr
            -75 callsubr
            return
          </CharString>
          <CharString index="25">
            -40 callgsubr
            563 106 vlineto
            endchar
          </CharString>
          <CharString index="26">
            -95 callgsubr
            -92 callgsubr
          </CharString>
          <CharString index="27">
            vlineto
            -79 callsubr
            return
          </CharString>
          <CharString index="28">
            -53 23 -95 callgsubr
            return
          </CharString>
          <CharString index="29">
            -104 callgsubr
            272 return
          </CharString>
          <CharString index="30">
            -46 callgsubr
            -106 vlineto
            -53 23 -23 53 vhcurveto
            return
          </CharString>
          <CharString index="31">
            -59 426 -249 hlineto
            78 callsubr
            -201 -371 223 callsubr
            return
          </CharString>
          <CharString index="32">
            -47 callsubr
            303 vlineto
            24 6 8 26 vhcurveto
            return
          </CharString>
          <CharString index="33">
            vlineto
            -51 callgsubr
            return
          </CharString>
          <CharString index="34">
            rmoveto
            17 callsubr
            98 hlineto
            25 11 -8 -23 hvcurveto
            -305 vlineto
            -22 -11 -9 -25 vhcurveto
            36 426 rmoveto
            -29 -37 callgsubr
            -29 184 485 vlineto
            endchar
          </CharString>
          <CharString index="35">
            vlineto
            -61 callsubr
            return
          </CharString>
          <CharString index="36">
            hlineto
            -84 callgsubr
            return
          </CharString>
          <CharString index="37">
            -394 rmoveto
            -64 callsubr
            -127 -107 callgsubr
            160 hlineto
            return
          </CharString>
          <CharString index="38">
            392 -44 callgsubr
            return
          </CharString>
          <CharString index="39">
            -33 callsubr
            -331 -24 callsubr
            return
          </CharString>
          <CharString index="40">
            26 7 3 callsubr
            return
          </CharString>
          <CharString index="41">
            hlineto
            -83 callsubr
            return
          </CharString>
          <CharString index="42">
            476 -137 -324 hlineto
            -53 -24 -23 -53 hvcurveto
            -196 -30 callgsubr
            return
          </CharString>
          <CharString index="43">
            -24 -86 callgsubr
            return
          </CharString>
          <CharString index="44">
            -53 -23 -82 callgsubr
            return
          </CharString>
          <CharString index="45">
            7 -20 callsubr
            return
          </CharString>
          <CharString index="46">
            -84 callgsubr
            -42 callgsubr
            return
          </CharString>
          <CharString index="47">
            hlineto
            -37 callsubr
            return
          </CharString>
          <CharString index="48">
            43 1 19 19 45 vvcurveto
            119 -75 callgsubr
            -436 hlineto
            -53 -24 150 callsubr
            83 vlineto
            26 7 7 283 callgsubr
            7 -7 -26 hvcurveto
            -118 vlineto
            -7 callsubr
            -59 129 hlineto
            26 8 -8 -26 hvcurveto
            -116 18 callsubr
            -123 -53 callsubr
            83 -200 -98 307 callgsubr
            23 23 53 hvcurveto
            140 vlineto
            5 148 -299 -72 callgsubr
            return
          </CharString>
          <CharString index="49">
            224 callsubr
            -200 -153 vlineto
            -24 -7 -8 -26 vhcurveto
            -124 21 callgsubr
            endchar
          </CharString>
          <CharString index="50">
            14 callsubr
            -327 -71 callgsubr
            return
          </CharString>
          <CharString index="51">
            59 callgsubr
            185 -198 112 callsubr
            return
          </CharString>
          <CharString index="52">
            -58 callgsubr
            303 -29 callgsubr
            return
          </CharString>
          <CharString index="53">
            rmoveto
            -7 callsubr
            204 callgsubr
            196 vlineto
            return
          </CharString>
          <CharString index="54">
            -31 callgsubr
            26 hvcurveto
            return
          </CharString>
          <CharString index="55">
            -53 26 -26 53 vhcurveto
            return
          </CharString>
          <CharString index="56">
            -104 callsubr
            34 callgsubr
            return
          </CharString>
          <CharString index="57">
            -80 callsubr
            291 -82 callsubr
          </CharString>
          <CharString index="58">
            26 7 -11 callgsubr
            return
          </CharString>
          <CharString index="59">
            rmoveto
            -24 -7 -22 callsubr
            return
          </CharString>
          <CharString index="60">
            16 callgsubr
            230 59 -74 -58 callgsubr
            return
          </CharString>
          <CharString index="61">
            vlineto
            53 -26 26 -53 vhcurveto
            return
          </CharString>
          <CharString index="62">
            hlineto
            -52 callgsubr
            return
          </CharString>
          <CharString index="63">
            19 -9 -16 10 -32 -21 callsubr
            32 16 10 19 9 hvcurveto
            return
          </CharString>
          <CharString index="64">
            -26 -6 -90 callsubr
            return
          </CharString>
          <CharString index="65">
            -6 callsubr
            -159 310 callsubr
            -24 -53 hvcurveto
            -141 37 callsubr
            159 return
          </CharString>
          <CharString index="66">
            -25 callsubr
            316 return
          </CharString>
          <CharString index="67">
            -1 -5 0 -6 -6 vvcurveto
            return
          </CharString>
          <CharString index="68">
            -264 -210 4 hlineto
            -59 callsubr
            return
          </CharString>
          <CharString index="69">
            -255 -27 callsubr
            return
          </CharString>
          <CharString index="70">
            26 5 -5 -26 hvcurveto
            return
          </CharString>
          <CharString index="71">
            -102 callsubr
            277 -93 callsubr
            201 266 -201 -95 vlineto
            13 callsubr
          </CharString>
          <CharString index="72">
            rmoveto
            195 129 -195 hlineto
            return
          </CharString>
          <CharString index="73">
            171 -54 callsubr
            return
          </CharString>
          <CharString index="74">
            -41 callsubr
            -194 return
          </CharString>
          <CharString index="75">
            108 326 107 -326 rlineto
            59 -182 rmoveto
            190 hlineto
            -237 622 rlineto
            -237 hlineto
            -236 -622 rlineto
            186 hlineto
            41 123 rlineto
            253 hlineto
            endchar
          </CharString>
          <CharString index="76">
            -59 callgsubr
            vlineto
            endchar
          </CharString>
          <CharString index="77">
            326 callsubr
            114 59 -250 328 callgsubr
            return
          </CharString>
          <CharString index="78">
            26 5 5 26 vhcurveto
            return
          </CharString>
          <CharString index="79">
            -14 callgsubr
            272 return
          </CharString>
          <CharString index="80">
            vlineto
            -28 callsubr
            return
          </CharString>
          <CharString index="81">
            -43 callsubr
            123 287 31 callgsubr
            -113 196 98 -4 callgsubr
            return
          </CharString>
          <CharString index="82">
            -64 callsubr
            -124 -91 callgsubr
            return
          </CharString>
          <CharString index="83">
            -102 callsubr
            33 callgsubr
            return
          </CharString>
          <CharString index="84">
            211 -106 callgsubr
            return
          </CharString>
          <CharString index="85">
            -89 callsubr
            -128 -91 callgsubr
            return
          </CharString>
          <CharString index="86">
            hhcurveto
            -213 -17 callgsubr
            213 hlineto
            return
          </CharString>
          <CharString index="87">
            7 26 vhcurveto
            return
          </CharString>
          <CharString index="88">
            -102 callsubr
            519 59 -363 -91 callgsubr
            141 -74 callsubr
            144 171 callsubr
            -90 188 99 vlineto
            361 callgsubr
            -277 -53 callsubr
            37 -106 callgsubr
            endchar
          </CharString>
          <CharString index="89">
            424 -74 callgsubr
          </CharString>
          <CharString index="90">
            vlineto
            -33 callgsubr
            return
          </CharString>
          <CharString index="91">
            16 callgsubr
            460 12 callgsubr
            270 callgsubr
            -8 -24 hvcurveto
            -108 -94 callgsubr
            -164 21 callgsubr
            return
          </CharString>
          <CharString index="92">
            rmoveto
            180 155 rlineto
            -177 hlineto
            -90 -90 -89 90 rlineto
            -178 hlineto
            180 -155 rlineto
            return
          </CharString>
          <CharString index="93">
            rlineto
            207 59 -344 -71 callsubr
            return
          </CharString>
          <CharString index="94">
            -45 19 32 callsubr
            -19 -19 -45 vvcurveto
            return
          </CharString>
          <CharString index="95">
            rmoveto
            145 -46 callsubr
            -412 46 callsubr
            -464 -71 callgsubr
            412 -41 callgsubr
            143 -193 -132 -17 callsubr
            -122 -63 callgsubr
            442 -32 callgsubr
            122 -60 callsubr
            -134 vlineto
            endchar
          </CharString>
          <CharString index="96">
            24 24 callsubr
            return
          </CharString>
          <CharString index="97">
            rmoveto
            -395 vlineto
            -23 -11 -8 -25 96 callgsubr
            -406 -71 callgsubr
            213 hlineto
            32 16 10 19 9 hvcurveto
            -29 184 485 vlineto
            endchar
          </CharString>
          <CharString index="98">
            -90 callgsubr
            153 -106 callgsubr
            114 59 -250 327 callsubr
            return
          </CharString>
          <CharString index="99">
            rmoveto
            -90 callgsubr
            394 196 -392 vlineto
            -73 callgsubr
            return
          </CharString>
          <CharString index="100">
            -73 callgsubr
            -129 return
          </CharString>
          <CharString index="101">
            98 callsubr
            -103 200 88 37 callgsubr
            return
          </CharString>
          <CharString index="102">
            hlineto
            24 17 5 10 11 hvcurveto
            -10 12 18 -5 24 288 callgsubr
          </CharString>
          <CharString index="103">
            hlineto
            357 callgsubr
            return
          </CharString>
          <CharString index="104">
            hlineto
            -79 callsubr
            473 59 -315 -91 callgsubr
            138 254 32 callgsubr
            258 467 -342 vlineto
            -27 -9 -8 -27 vhcurveto
            -123 hlineto
            228 callgsubr
            20 -27 45 vhcurveto
            100 hlineto
            -161 -202 rlineto
            200 hlineto
            167 215 rlineto
            -140 197 124 callsubr
          </CharString>
          <CharString index="105">
            vlineto
            5 callsubr
            return
          </CharString>
          <CharString index="106">
            -214 hlineto
            -103 callgsubr
            return
          </CharString>
          <CharString index="107">
            122 callgsubr
            -28 vhcurveto
            -360 90 callsubr
            203 -88 callsubr
            34 callgsubr
            return
          </CharString>
          <CharString index="108">
            -33 callgsubr
            -125 -63 callgsubr
            442 -32 callgsubr
            125 -60 callsubr
            return
          </CharString>
          <CharString index="109">
            8 -87 callgsubr
            return
          </CharString>
          <CharString index="110">
            -7 -26 hvcurveto
            return
          </CharString>
          <CharString index="111">
            289 callgsubr
            421 -41 callgsubr
            543 -193 -532 -17 callsubr
            -131 -63 callgsubr
            return
          </CharString>
          <CharString index="112">
            -53 23 -24 206 callsubr
            -146 -198 rlineto
            204 hlineto
            143 208 rlineto
            -131 200 return
          </CharString>
          <CharString index="113">
            -44 -18 -18 -42 -1 282 callsubr
            -310 -25 callgsubr
            -255 -80 callsubr
            310 hlineto
            47 19 18 42 2 hvcurveto
            5 hlineto
            -42 1 18 -18 44 hhcurveto
            315 62 callgsubr
            return
          </CharString>
          <CharString index="114">
            hlineto
            -78 callgsubr
            return
          </CharString>
          <CharString index="115">
            -7 27 callgsubr
            return
          </CharString>
          <CharString index="116">
            157 callsubr
            -47 hhcurveto
            return
          </CharString>
          <CharString index="117">
            271 hlineto
            -67 callsubr
            -127 354 callgsubr
            8 24 hvcurveto
            79 -200 return
          </CharString>
          <CharString index="118">
            33 11 6 26 vhcurveto
            52 60 -70 hlineto
            -55 -28 -28 -52 hvcurveto
            -14 vlineto
            -49 5 -48 0 vhcurveto
            0 -12 66 -16 55 vhcurveto
            -20 70 rlineto
            -117 hlineto
            34 -75 22 -49 22 -44 25 -49 rlinecurve
            -7 hlineto
            -33 51 -32 47 -47 52 -60 67 rcurveline
            -194 hlineto
            158 -145 return
          </CharString>
          <CharString index="119">
            169 35 callsubr
            return
          </CharString>
          <CharString index="120">
            1 callgsubr
            endchar
          </CharString>
          <CharString index="121">
            -53 -26 -26 -53 hvcurveto
            return
          </CharString>
          <CharString index="122">
            rmoveto
            58 hlineto
            126 148 rlineto
            69 -184 vlineto
            return
          </CharString>
          <CharString index="123">
            11 rmoveto
            1 callsubr
            return
          </CharString>
          <CharString index="124">
            -26 -5 5 26 hvcurveto
            305 -32 callgsubr
            return
          </CharString>
          <CharString index="125">
            vlineto
            44 callsubr
            return
          </CharString>
          <CharString index="126">
            109 callgsubr
            8 26 vhcurveto
            161 hlineto
            return
          </CharString>
          <CharString index="127">
            -2 callsubr
            392 vlineto
            26 8 8 26 vhcurveto
            112 -70 callgsubr
            -225 -94 callgsubr
            -102 -59 258 62 callgsubr
            -270 -31 callsubr
          </CharString>
          <CharString index="128">
            53 -24 23 -53 vhcurveto
            return
          </CharString>
          <CharString index="129">
            rmoveto
            -7 callsubr
            171 callgsubr
            350 196 vlineto
            return
          </CharString>
          <CharString index="130">
            -26 vhcurveto
            -96 -59 253 -104 callgsubr
            return
          </CharString>
          <CharString index="131">
            6 -87 callgsubr
            return
          </CharString>
          <CharString index="132">
            59 -378 -91 callgsubr
            return
          </CharString>
          <CharString index="133">
            -103 callgsubr
            -23 callgsubr
          </CharString>
          <CharString index="134">
            157 callgsubr
            198 563 return
          </CharString>
          <CharString index="135">
            -75 callgsubr
            -377 -25 callgsubr
            return
          </CharString>
          <CharString index="136">
            -25 8 callsubr
            return
          </CharString>
          <CharString index="137">
            -9 92 callsubr
            -152 331 callgsubr
            return
          </CharString>
          <CharString index="138">
            rmoveto
            -185 hlineto
            -138 -151 rlineto
            151 hlineto
            return
          </CharString>
          <CharString index="139">
            197 callgsubr
            -4 vlineto
            -43 -1 return
          </CharString>
          <CharString index="140">
            vlineto
            99 callsubr
            return
          </CharString>
          <CharString index="141">
            -69 -102 callsubr
            266 hlineto
            -67 callsubr
            -61 18 callsubr
            -144 56 -209 -193 209 78 301 -104 callgsubr
            117 callsubr
            return
          </CharString>
          <CharString index="142">
            rmoveto
            -64 callsubr
            -127 -107 callgsubr
            160 hlineto
            639 196 rmoveto
            return
          </CharString>
          <CharString index="143">
            199 callsubr
            178 -198 hlineto
            -64 callsubr
            -436 426 rmoveto
            469 -137 -317 258 callgsubr
            441 -104 callgsubr
            409 81 59 -750 vlineto
            return
          </CharString>
          <CharString index="144">
            -80 callsubr
            117 callgsubr
            return
          </CharString>
          <CharString index="145">
            105 callsubr
            149 91 rmoveto
            6 callsubr
            return
          </CharString>
          <CharString index="146">
            rmoveto
            -26 -7 -7 -26 vhcurveto
            -95 222 callgsubr
            137 96 callsubr
            hlineto
            -67 callsubr
            return
          </CharString>
          <CharString index="147">
            vlineto
            26 callsubr
          </CharString>
          <CharString index="148">
            40 callgsubr
            316 return
          </CharString>
          <CharString index="149">
            11 -10 6 vhcurveto
            return
          </CharString>
          <CharString index="150">
            -90 callgsubr
            225 57 callgsubr
            return
          </CharString>
          <CharString index="151">
            -26 8 callsubr
            return
          </CharString>
          <CharString index="152">
            hlineto
            24 17 18 callgsubr
            12 215 callsubr
            return
          </CharString>
          <CharString index="153">
            hlineto
            14 callsubr
            return
          </CharString>
          <CharString index="154">
            -59 321 hlineto
            -84 callsubr
            -250 return
          </CharString>
          <CharString index="155">
            rmoveto
            137 115 59 -762 -59 448 -78 -281 vlineto
            131 callsubr
            -114 354 callgsubr
            7 25 hvcurveto
            70 -200 -85 -80 callsubr
            return
          </CharString>
          <CharString index="156">
            433 1165 369 callsubr
            -1185 -59 525 -266 -44 vlineto
            24 callgsubr
            39 -218 199 392 hlineto
            -27 callgsubr
            109 hlineto
            26 6 -11 callgsubr
            -225 170 callsubr
            -99 -59 255 62 callgsubr
            -267 -31 callsubr
          </CharString>
          <CharString index="157">
            -79 callsubr
            456 -104 callgsubr
            120 -200 -105 -94 callgsubr
            -142 -91 callgsubr
            472 213 -188 -94 callgsubr
            -77 -59 234 -104 callgsubr
            203 93 vlineto
            endchar
          </CharString>
          <CharString index="158">
            rmoveto
            -1394 -59 426 -249 hlineto
            -25 -6 -7 -26 vhcurveto
            -101 165 -201 -371 71 callsubr
          </CharString>
          <CharString index="159">
            rmoveto
            25 5 5 25 vhcurveto
            78 hlineto
            26 4 -5 -25 hvcurveto
            -13 vlineto
            -25 -4 -5 -26 vhcurveto
            -78 hlineto
            -25 -5 5 25 hvcurveto
            181 -85 rmoveto
            50 24 24 51 hvcurveto
            34 vlineto
            50 -24 24 -50 vhcurveto
            -224 hlineto
            -50 -24 -24 -50 hvcurveto
            -34 vlineto
            -51 24 -24 50 vhcurveto
            return
          </CharString>
          <CharString index="160">
            301 callsubr
            146 -227 vlineto
            -390 -296 rlineto
            235 hlineto
            170 202 callsubr
            182 644 106 vlineto
            endchar
          </CharString>
          <CharString index="161" raw="1">
            c6fb8e72 1d0b  
          </CharString>
          <CharString index="162">
            -23 111 callgsubr
            130 203 callgsubr
            return
          </CharString>
          <CharString index="163">
            -80 callsubr
            231 184 callgsubr
            return
          </CharString>
          <CharString index="164">
            -59 468 -100 -316 154 callsubr
            432 -104 callgsubr
            return
          </CharString>
          <CharString index="165">
            hlineto
            25 16 18 callgsubr
            13 215 callsubr
            return
          </CharString>
          <CharString index="166">
            -54 callgsubr
            endchar
          </CharString>
          <CharString index="167">
            -25 callgsubr
            -93 200 78 33 callsubr
            109 90 callgsubr
            return
          </CharString>
          <CharString index="168">
            -102 callsubr
            434 -104 callgsubr
            return
          </CharString>
          <CharString index="169">
            rmoveto
            131 -179 rlineto
            202 hlineto
            -132 179 rlineto
            return
          </CharString>
          <CharString index="170">
            -104 377 66 callgsubr
            return
          </CharString>
          <CharString index="171">
            -258 229 -14 callsubr
            365 hlineto
            return
          </CharString>
          <CharString index="172">
            11 7 6 13 24 vvcurveto
            142 74 callsubr
            return
          </CharString>
          <CharString index="173">
            677 985 393 rmoveto
            181 callsubr
            85 hlineto
            26 6 -8 -25 hvcurveto
            -104 vlineto
            -25 -8 -8 -22 vhcurveto
            -89 hlineto
            -23 -8 8 25 hvcurveto
            -286 274 rmoveto
            710 59 -1429 -59 520 -307 -35 hlineto
            -118 159 rlineto
            58 -43 -36 12 -89 hhcurveto
            -156 -60 28 hlineto
            54 32 -9 -46 35 hvcurveto
            97 -135 -231 -235 rlineto
            225 hlineto
            193 196 rlineto
            44 -196 199 196 return
          </CharString>
          <CharString index="174">
            rmoveto
            351 callgsubr
            -162 -54 vlineto
            -26 -5 -5 -26 vhcurveto
            -109 272 callsubr
            -163 -64 -71 callgsubr
            return
          </CharString>
          <CharString index="175">
            -350 71 callsubr
          </CharString>
          <CharString index="176">
            -394 -48 callsubr
            return
          </CharString>
          <CharString index="177">
            -58 callgsubr
            123 288 113 callgsubr
            178 -75 callgsubr
            -406 214 callgsubr
            -652 -72 callsubr
            346 105 -4 callgsubr
            return
          </CharString>
          <CharString index="178">
            223 callsubr
            467 -349 vlineto
            -27 -9 -8 -27 vhcurveto
            -123 hlineto
            -9 callsubr
            261 hlineto
            16 11 3 8 7 hvcurveto
            -131 197 124 callsubr
          </CharString>
          <CharString index="179">
            hlineto
            -49 callgsubr
            -150 146 return
          </CharString>
          <CharString index="180">
            267 callsubr
            174 return
          </CharString>
          <CharString index="181">
            -75 callgsubr
            -392 hlineto
            -98 callgsubr
            return
          </CharString>
          <CharString index="182">
            183 callgsubr
            115 59 -781 158 callgsubr
            106 350 callsubr
            202 hlineto
            122 182 rlineto
            -101 262 callsubr
            258 59 hlineto
            endchar
          </CharString>
          <CharString index="183">
            234 callgsubr
            -348 -91 callgsubr
            82 191 113 callgsubr
            82 -75 callgsubr
            return
          </CharString>
          <CharString index="184">
            302 callsubr
            -772 -59 454 -78 -283 257 callsubr
            50 hlineto
            -93 -162 rlineto
            190 hlineto
            72 156 73 -156 rlineto
            190 hlineto
            -92 162 rlineto
            46 338 callsubr
            -200 -153 47 callgsubr
            -124 -10 callgsubr
            290 -106 callgsubr
            endchar
          </CharString>
          <CharString index="185">
            134 callsubr
            165 return
          </CharString>
          <CharString index="186">
            -90 callgsubr
            164 347 callgsubr
            255 -330 rlineto
            -4 -5 -8 -2 -12 hhcurveto
            return
          </CharString>
          <CharString index="187">
            273 callgsubr
            -3 hvcurveto
            -4 hlineto
            9 callsubr
            return
          </CharString>
          <CharString index="188">
            -59 1161 72 callsubr
            -859 -55 callgsubr
            157 -350 -80 callsubr
            430 -76 callgsubr
            return
          </CharString>
          <CharString index="189">
            vlineto
            -40 callsubr
            -54 28 callgsubr
            -145 -19 callsubr
          </CharString>
          <CharString index="190">
            rmoveto
            151 hlineto
            172 151 rlineto
            -185 hlineto
            return
          </CharString>
          <CharString index="191">
            vlineto
            -40 callsubr
            -81 -80 callsubr
            -65 callgsubr
          </CharString>
          <CharString index="192">
            160 callgsubr
            340 485 rmoveto
            return
          </CharString>
          <CharString index="193">
            hlineto
            -98 callgsubr
            -153 323 callsubr
            189 59 -56 171 callgsubr
            123 201 callsubr
            -290 47 callgsubr
            -455 -10 callgsubr
            143 39 callgsubr
            158 -74 callsubr
            return
          </CharString>
          <CharString index="194">
            rmoveto
            -24 -8 -8 -26 vhcurveto
            -156 hlineto
            -26 -7 8 24 hvcurveto
            303 67 callgsubr
            128 callgsubr
          </CharString>
          <CharString index="195">
            hlineto
            15 11 3 7 7 hvcurveto
            return
          </CharString>
          <CharString index="196">
            -84 callsubr
            -246 236 callsubr
            520 49 callgsubr
          </CharString>
          <CharString index="197">
            -91 callgsubr
            140 return
          </CharString>
          <CharString index="198">
            rmoveto
            260 callsubr
            105 59 -645 47 callsubr
            -197 hlineto
            -103 callgsubr
            323 hlineto
            -192 -172 rlineto
            236 hlineto
            197 191 rlineto
            60 40 hlineto
            endchar
          </CharString>
          <CharString index="199">
            -6 -5 -11 -19 vvcurveto
            return
          </CharString>
          <CharString index="200">
            -59 474 -78 -312 161 callgsubr
            -68 -80 callsubr
            297 hlineto
            -67 callsubr
            -62 18 callsubr
            -160 53 -209 -190 209 78 316 -45 callsubr
            94 2 callgsubr
            -296 -53 callsubr
            36 264 callgsubr
          </CharString>
          <CharString index="201">
            191 callsubr
            44 vlineto
            26 5 4 26 vhcurveto
            137 return
          </CharString>
          <CharString index="202">
            113 callgsubr
            142 vlineto
            19 -5 11 return
          </CharString>
          <CharString index="203">
            -74 callsubr
            96 return
          </CharString>
          <CharString index="204">
            206 -86 callsubr
            return
          </CharString>
          <CharString index="205">
            -67 callgsubr
            -421 hlineto
            -98 callgsubr
            return
          </CharString>
          <CharString index="206">
            25 -62 callsubr
            return
          </CharString>
          <CharString index="207">
            -392 vlineto
            -96 callgsubr
            return
          </CharString>
          <CharString index="208">
            -19 143 callsubr
            return
          </CharString>
          <CharString index="209">
            -10 722 0 callgsubr
            -742 -59 742 hlineto
            -441 -387 rmoveto
            244 callsubr
            -218 248 callgsubr
            150 -59 303 callgsubr
            233 313 59 -815 vlineto
            -98 callgsubr
            -216 -102 callsubr
            return
          </CharString>
          <CharString index="210">
            29 callsubr
            -124 -10 callgsubr
            277 -192 -292 -102 callsubr
            return
          </CharString>
          <CharString index="211">
            -59 94 -409 hlineto
            131 callgsubr
            return
          </CharString>
          <CharString index="212">
            790 169 rmoveto
            -64 callsubr
            -118 -107 callgsubr
            118 -70 callgsubr
            -351 -225 rmoveto
            -64 callsubr
            -118 -107 callgsubr
            118 -70 callgsubr
            return
          </CharString>
          <CharString index="213">
            -55 139 485 4 callgsubr
            379 327 callgsubr
            -105 -90 rmoveto
            -305 -17 callsubr
            -107 hlineto
            17 callsubr
            107 -60 callsubr
            return
          </CharString>
          <CharString index="214">
            -94 callgsubr
            -101 -59 return
          </CharString>
          <CharString index="215">
            hlineto
            19 -54 21 -60 17 -56 24 -47 rlinecurve
            -7 hlineto
            -30 53 -33 49 -53 62 -44 53 rcurveline
            -182 hlineto
            137 -129 52 -48 33 -27 18 -13 rlinecurve
            return
          </CharString>
          <CharString index="216">
            117 vlineto
            137 callgsubr
            -117 vlineto
            return
          </CharString>
          <CharString index="217">
            1 229 callgsubr
            225 387 rmoveto
            92 59 -752 57 callsubr
            return
          </CharString>
          <CharString index="218">
            -59 94 -409 -102 callsubr
            return
          </CharString>
          <CharString index="219">
            hlineto
            -24 -6 -89 callsubr
            return
          </CharString>
          <CharString index="220">
            543 -34 callgsubr
            return
          </CharString>
          <CharString index="221">
            -104 callgsubr
            84 -197 -69 -94 callgsubr
            -177 -91 callgsubr
            133 144 callgsubr
            407 return
          </CharString>
          <CharString index="222">
            hlineto
            -67 callsubr
            -128 18 callsubr
            -132 -59 132 hlineto
            -67 callsubr
            -186 vlineto
            -24 -7 356 callgsubr
            115 -200 -130 -80 callsubr
            433 -104 callgsubr
            199 vlineto
            return
          </CharString>
          <CharString index="223">
            -563 -99 callsubr
          </CharString>
          <CharString index="224">
            93 -75 callgsubr
            return
          </CharString>
          <CharString index="225">
            -58 callgsubr
            123 287 31 callgsubr
            return
          </CharString>
          <CharString index="226">
            -164 vlineto
            -13 callsubr
            -119 vlineto
            -53 23 -24 53 vhcurveto
            315 -92 callsubr
            -61 199 445 -199 -101 -192 vlineto
            215 callgsubr
            154 -106 callgsubr
            endchar
          </CharString>
          <CharString index="227">
            vlineto
            211 callsubr
          </CharString>
          <CharString index="228" raw="1">
            711efb01 06710b  
          </CharString>
          <CharString index="229">
            rmoveto
            50 -24 24 -50 vhcurveto
            -224 hlineto
            -50 -24 -24 -50 hvcurveto
            -34 vlineto
            -51 24 -24 50 vhcurveto
            224 hlineto
            50 24 24 51 hvcurveto
            -117 10 rmoveto
            -25 -4 -5 -26 vhcurveto
            -78 hlineto
            -25 -5 5 25 hvcurveto
            13 vlineto
            25 5 5 25 vhcurveto
            78 hlineto
            26 4 -5 -25 hvcurveto
            return
          </CharString>
          <CharString index="230">
            -104 callgsubr
            146 vlineto
            53 -23 189 callgsubr
          </CharString>
          <CharString index="231">
            563 106 vlineto
            endchar
          </CharString>
          <CharString index="232">
            282 273 229 rmoveto
            254 -45 callsubr
            258 410 59 -1034 -59 426 -243 170 callsubr
            -101 159 29 callgsubr
            473 59 -315 -91 callgsubr
            return
          </CharString>
          <CharString index="233">
            622 228 callsubr
            return
          </CharString>
          <CharString index="234">
            88 callgsubr
            534 hmoveto
            -306 -622 163 callgsubr
          </CharString>
          <CharString index="235">
            -41 callsubr
            -532 -316 vlineto
            -68 callsubr
            return
          </CharString>
          <CharString index="236">
            14 rmoveto
            -18 -3 -4 -19 vhcurveto
            -88 hlineto
            -18 -3 4 18 hvcurveto
            216 vlineto
            19 3 3 18 vhcurveto
            88 hlineto
            19 3 -3 -19 hvcurveto
            return
          </CharString>
          <CharString index="237">
            142 callgsubr
            133 callsubr
            -729 -144 rmoveto
            -24 -6 -8 -26 vhcurveto
            -128 -107 callgsubr
            160 hlineto
            return
          </CharString>
          <CharString index="238">
            -63 callsubr
            -81 -80 callsubr
            271 hlineto
            -67 callsubr
            return
          </CharString>
          <CharString index="239">
            rmoveto
            174 hlineto
            180 155 rlineto
            -177 hlineto
            -90 -90 -89 90 rlineto
            -178 hlineto
            return
          </CharString>
          <CharString index="240">
            8 196 callsubr
            return
          </CharString>
          <CharString index="241">
            167 callgsubr
            -101 return
          </CharString>
          <CharString index="242">
            rmoveto
            228 callgsubr
            19 -27 46 vhcurveto
            97 hlineto
            -158 -202 rlineto
            200 hlineto
            170 224 rlineto
            42 37 hlineto
            endchar
          </CharString>
          <CharString index="243">
            214 callgsubr
            -80 callsubr
            return
          </CharString>
          <CharString index="244">
            rmoveto
            -64 callsubr
            -150 return
          </CharString>
          <CharString index="245">
            -63 callgsubr
            129 return
          </CharString>
          <CharString index="246">
            243 callgsubr
            -6 -63 -47 vvcurveto
            -19 181 644 106 vlineto
            endchar
          </CharString>
          <CharString index="247">
            117 callgsubr
            159 return
          </CharString>
          <CharString index="248">
            271 callgsubr
            743 -104 callgsubr
            333 vlineto
            return
          </CharString>
          <CharString index="249">
            vlineto
            24 195 callsubr
            return
          </CharString>
          <CharString index="250">
            43 167 callsubr
            return
          </CharString>
          <CharString index="251">
            93 hlineto
            -9 92 callsubr
            -118 -80 callsubr
            302 -92 callsubr
            -54 172 275 88 347 callsubr
            309 2 callgsubr
            -81 78 hlineto
            endchar
          </CharString>
          <CharString index="252">
            -379 vlineto
            -73 callgsubr
            -112 -10 callgsubr
            212 234 callsubr
            return
          </CharString>
          <CharString index="253">
            -59 99 -212 hlineto
            335 callgsubr
            233 callsubr
            return
          </CharString>
          <CharString index="254">
            485 rmoveto
            192 -485 rlineto
            70 hlineto
            -15 -34 rlineto
            -33 -14 -21 -15 -49 hhcurveto
            -67 -59 127 hlineto
            125 32 45 80 31 hvcurveto
            200 501 rlineto
            -185 hlineto
            -118 -366 -116 366 rlineto
            return
          </CharString>
          <CharString index="255">
            53 26 26 53 hvcurveto
            464 84 callgsubr
          </CharString>
          <CharString index="256">
            405 -210 rmoveto
            195 128 -195 hlineto
            return
          </CharString>
          <CharString index="257">
            -82 callgsubr
            -99 200 return
          </CharString>
          <CharString index="258">
            -53 23 -24 53 vhcurveto
            273 -92 callsubr
            -132 200 290 -200 -75 vlineto
            -26 333 callsubr
            -120 171 callgsubr
            179 -106 callgsubr
            endchar
          </CharString>
          <CharString index="259">
            rmoveto
            160 callsubr
            return
          </CharString>
          <CharString index="260">
            622 164 callsubr
            return
          </CharString>
          <CharString index="261">
            hlineto
            -98 callgsubr
            -194 -102 callsubr
            return
          </CharString>
          <CharString index="262">
            -104 callgsubr
            101 272 callgsubr
            return
          </CharString>
          <CharString index="263">
            -41 callgsubr
            185 -46 callsubr
            return
          </CharString>
          <CharString index="264">
            42 -2 -19 18 return
          </CharString>
          <CharString index="265">
            rmoveto
            -395 vlineto
            -23 -12 -8 -25 96 callgsubr
            -406 -71 callgsubr
            214 hlineto
            32 17 10 20 8 hvcurveto
            -30 184 485 vlineto
            endchar
          </CharString>
          <CharString index="266">
            rmoveto
            219 callgsubr
            262 -235 rlineto
            -3 -5 -8 -2 -11 hhcurveto
            return
          </CharString>
          <CharString index="267">
            357 callgsubr
            97 callsubr
            return
          </CharString>
          <CharString index="268">
            -59 449 hlineto
            -67 callsubr
            -152 vlineto
            -16 callgsubr
            -155 131 308 callgsubr
            367 59 -211 -91 callgsubr
            195 return
          </CharString>
          <CharString index="269">
            rmoveto
            -185 hlineto
            172 -151 rlineto
            151 hlineto
            endchar
          </CharString>
          <CharString index="270">
            vlineto
            30 callsubr
            return
          </CharString>
          <CharString index="271">
            rmoveto
            46 callgsubr
            -180 -156 rlineto
            178 hlineto
            return
          </CharString>
          <CharString index="272">
            rmoveto
            -577 -59 191 -563 193 563 193 hlineto
            endchar
          </CharString>
          <CharString index="273">
            -198 223 callgsubr
            return
          </CharString>
          <CharString index="274">
            287 callsubr
            -1 return
          </CharString>
          <CharString index="275">
            220 callsubr
            -24 23 -53 vhcurveto
            return
          </CharString>
          <CharString index="276">
            59 -449 -59 252 vlineto
            -268 -367 rlineto
            -59 474 59 return
          </CharString>
          <CharString index="277">
            vlineto
            -24 -6 -89 callsubr
            return
          </CharString>
          <CharString index="278">
            hlineto
            26 7 -9 -24 hvcurveto
            return
          </CharString>
          <CharString index="279">
            563 rmoveto
            263 -187 hlineto
            -84 8 -79 0 vhcurveto
            -230 -76 rmoveto
            -90 callgsubr
            175 vlineto
            72 -11 71 0 vhcurveto
            261 -338 rlineto
            -9 -4 -10 -3 -16 hhcurveto
            return
          </CharString>
          <CharString index="280">
            64 callgsubr
            200 211 vlineto
            24 return
          </CharString>
          <CharString index="281">
            -104 callgsubr
            141 vlineto
            45 -19 19 -44 vhcurveto
            5 vlineto
            44 1 19 19 45 vvcurveto
            return
          </CharString>
          <CharString index="282">
            169 callgsubr
            140 203 vlineto
            53 return
          </CharString>
          <CharString index="283" raw="1">
            fb6a0656 0b  
          </CharString>
          <CharString index="284">
            hlineto
            24 callgsubr
            return
          </CharString>
          <CharString index="285">
            -316 vlineto
            -68 callsubr
            146 return
          </CharString>
          <CharString index="286">
            -44 -19 -20 -44 hvcurveto
            -53 vlineto
            -36 15 -15 34 -1 vhcurveto
            -4 vlineto
            -34 -1 -15 -15 -36 vvcurveto
            -53 vlineto
            -45 19 -19 44 vhcurveto
            512 59 -386 hlineto
            -22 -6 6 21 hvcurveto
            return
          </CharString>
          <CharString index="287">
            291 callsubr
            119 return
          </CharString>
          <CharString index="288">
            25 -98 callsubr
            return
          </CharString>
          <CharString index="289">
            -192 137 callsubr
            return
          </CharString>
          <CharString index="290">
            -126 -102 callsubr
            return
          </CharString>
          <CharString index="291">
            426 266 callgsubr
            return
          </CharString>
          <CharString index="292">
            33 12 -20 callsubr
            48 64 -106 hlineto
            -58 -27 -29 -57 hvcurveto
            -20 vlineto
            -33 6 -29 4 -16 vhcurveto
            -9 16 -17 35 -28 37 -66 84 rcurveline
            -180 hlineto
            93 -110 return
          </CharString>
          <CharString index="293">
            rmoveto
            -196 -120 196 hlineto
            -297 120 204 callsubr
            return
          </CharString>
          <CharString index="294">
            295 callgsubr
            -160 -63 callgsubr
            44 vlineto
            26 5 4 26 vhcurveto
            137 90 return
          </CharString>
          <CharString index="295">
            238 callgsubr
            303 vlineto
            321 callgsubr
            return
          </CharString>
          <CharString index="296">
            -102 callsubr
            427 -104 callgsubr
            return
          </CharString>
          <CharString index="297">
            6 0 6 -1 5 vhcurveto
            return
          </CharString>
          <CharString index="298">
            rmoveto
            -26 -5 5 26 hvcurveto
            return
          </CharString>
          <CharString index="299">
            hlineto
            25 16 5 10 11 hvcurveto
            -10 13 148 callgsubr
          </CharString>
          <CharString index="300">
            hlineto
            -49 callgsubr
            -150 87 1 59 return
          </CharString>
          <CharString index="301">
            334 callsubr
            -162 325 callgsubr
            return
          </CharString>
          <CharString index="302">
            7 133 callsubr
            return
          </CharString>
          <CharString index="303">
            26 vhcurveto
            161 hlineto
            return
          </CharString>
          <CharString index="304">
            -66 callsubr
            193 return
          </CharString>
          <CharString index="305">
            45 hlineto
            76 callgsubr
            return
          </CharString>
          <CharString index="306">
            271 225 callgsubr
            return
          </CharString>
          <CharString index="307">
            -371 75 0 callgsubr
            -622 200 622 vlineto
            return
          </CharString>
          <CharString index="308">
            203 callgsubr
            7 -8 -24 hvcurveto
            return
          </CharString>
          <CharString index="309">
            145 rlineto
            0 -7 -63 -47 vvcurveto
            -19 return
          </CharString>
          <CharString index="310">
            hlineto
            13 11 1 3 9 hvcurveto
            -32 8 return
          </CharString>
          <CharString index="311">
            rmoveto
            -197 -120 197 hlineto
            return
          </CharString>
          <CharString index="312">
            -303 vlineto
            -98 callgsubr
            return
          </CharString>
          <CharString index="313">
            303 callsubr
            hlineto
            return
          </CharString>
          <CharString index="314">
            232 callsubr
            -348 -58 callgsubr
            82 190 32 callgsubr
            82 2 callgsubr
            return
          </CharString>
          <CharString index="315">
            -73 callgsubr
            -133 -107 callgsubr
            117 59 -273 hlineto
            -98 callgsubr
            return
          </CharString>
          <CharString index="316">
            -65 callsubr
            82 return
          </CharString>
          <CharString index="317">
            91 126 callgsubr
            return
          </CharString>
          <CharString index="318">
            5 callsubr
            563 106 vlineto
            endchar
          </CharString>
          <CharString index="319">
            rmoveto
            563 -193 -622 484 59 vlineto
            endchar
          </CharString>
          <CharString index="320">
            vlineto
            206 callgsubr
            return
          </CharString>
          <CharString index="321">
            90 38 callgsubr
            return
          </CharString>
          <CharString index="322">
            18 -5 24 hhcurveto
            return
          </CharString>
          <CharString index="323">
            -712 -188 0 callgsubr
            -30 53 -33 49 -53 62 -44 53 rcurveline
            -182 hlineto
            137 -129 rlineto
            83 -78 36 -21 0 vvcurveto
            return
          </CharString>
          <CharString index="324">
            228 callsubr
            endchar
          </CharString>
          <CharString index="325">
            232 callsubr
            -360 hlineto
            -26 return
          </CharString>
          <CharString index="326">
            23 -53 vhcurveto
            -421 214 callgsubr
            return
          </CharString>
          <CharString index="327">
            hlineto
            26 7 -7 -25 hvcurveto
            -78 200 93 vlineto
            53 return
          </CharString>
          <CharString index="328">
            284 callsubr
            87 vlineto
            24 8 9 26 vhcurveto
            return
          </CharString>
          <CharString index="329">
            -184 -485 184 return
          </CharString>
          <CharString index="330">
            hlineto
            136 callgsubr
            return
          </CharString>
          <CharString index="331">
            307 callgsubr
            24 23 53 hvcurveto
            168 return
          </CharString>
          <CharString index="332">
            298 callsubr
            -263 239 rlineto
            207 59 return
          </CharString>
          <CharString index="333">
            94 callsubr
            90 return
          </CharString>
          <CharString index="334">
            -712 22 839 rmoveto
            -232 -25 callgsubr
            -166 200 151 33 callsubr
            75 hlineto
            return
          </CharString>
          <CharString index="335">
            rmoveto
            -443 vlineto
            -248 443 rlineto
            -168 -622 178 442 hlineto
            251 -442 rlineto
            166 622 hlineto
            return
          </CharString>
          <CharString index="336">
            -98 callgsubr
            -54 28 callgsubr
            -135 -102 callsubr
            return
          </CharString>
          <CharString index="337">
            rmoveto
            137 143 59 -799 346 callsubr
            257 callsubr
            return
          </CharString>
          <CharString index="338">
            -69 callgsubr
            hlineto
            endchar
          </CharString>
          <CharString index="339">
            181 callgsubr
            -28 vhcurveto
            return
          </CharString>
          <CharString index="340">
            -141 -80 callsubr
            return
          </CharString>
          <CharString index="341">
            -106 callgsubr
            96 59 return
          </CharString>
          <CharString index="342">
            113 -46 callsubr
            return
          </CharString>
          <CharString index="343">
            -214 hlineto
            -79 callsubr
            return
          </CharString>
          <CharString index="344">
            -392 hlineto
            -73 callgsubr
            -192 -91 callgsubr
            225 vlineto
            321 callgsubr
            101 59 return
          </CharString>
          <CharString index="345">
            -273 -25 callgsubr
            -238 -80 callsubr
            121 hlineto
            -132 -172 rlineto
            203 hlineto
            return
          </CharString>
          <CharString index="346">
            169 rmoveto
            -24 -6 -89 callsubr
            -127 -107 callgsubr
            159 hlineto
            return
          </CharString>
          <CharString index="347">
            rmoveto
            -61 -34 -24 -36 -14 hvcurveto
            58 222 callsubr
            342 vlineto
            46 23 30 50 vhcurveto
            100 69 hlineto
            endchar
          </CharString>
          <CharString index="348">
            vlineto
            51 -22 25 -54 vhcurveto
            -382 hlineto
            -54 -22 -25 -51 hvcurveto
            -98 vlineto
            -29 5 -18 14 -8 vhcurveto
            -110 hlineto
            endchar
          </CharString>
          <CharString index="349">
            -103 callgsubr
            415 -104 callgsubr
            409 return
          </CharString>
          <CharString index="350">
            14 callsubr
            -61 -71 callgsubr
            244 57 return
          </CharString>
          <CharString index="351">
            -26 -7 7 25 hvcurveto
            186 233 callgsubr
            return
          </CharString>
          <CharString index="352">
            321 callsubr
            236 hlineto
            return
          </CharString>
          <CharString index="353">
            hlineto
            -10 92 callsubr
            return
          </CharString>
          <CharString index="354">
            -11 callgsubr
            -303 vlineto
            -24 return
          </CharString>
          <CharString index="355">
            -26 -6 7 25 hvcurveto
            return
          </CharString>
          <CharString index="356">
            -78 255 callsubr
            return
          </CharString>
          <CharString index="357">
            -80 callsubr
            271 -88 callgsubr
            return
          </CharString>
          <CharString index="358">
            rmoveto
            -549 -59 132 callgsubr
            endchar
          </CharString>
          <CharString index="359">
            -6 27 callgsubr
            return
          </CharString>
          <CharString index="360">
            -76 170 callsubr
            -138 -91 callgsubr
            76 -192 -91 -102 callsubr
            return
          </CharString>
          <CharString index="361">
            -107 callgsubr
            116 59 -273 -25 callgsubr
            return
          </CharString>
          <CharString index="362">
            80 callsubr
            -332 hlineto
            -98 callgsubr
            return
          </CharString>
          <CharString index="363">
            -79 callsubr
            520 hlineto
            16 11 3 8 7 hvcurveto
            return
          </CharString>
          <CharString index="364">
            vlineto
            -98 callgsubr
            -320 -102 callsubr
            return
          </CharString>
          <CharString index="365">
            hlineto
            200 callgsubr
            return
          </CharString>
          <CharString index="366">
            -91 callgsubr
            153 -106 callgsubr
            return
          </CharString>
          <CharString index="367">
            248 callsubr
            123 97 callsubr
            return
          </CharString>
          <CharString index="368">
            rmoveto
            -90 callgsubr
            98 vlineto
            56 341 callgsubr
            262 -237 rlineto
            -2 -5 -6 -1 -9 hhcurveto
            return
          </CharString>
          <CharString index="369">
            200 -69 callsubr
            return
          </CharString>
          <CharString index="370">
            -73 callgsubr
            -119 hlineto
            -26 -7 return
          </CharString>
          <CharString index="371">
            -158 rlineto
            134 hlineto
            return
          </CharString>
          <CharString index="372">
            hlineto
            26 8 3 callsubr
            return
          </CharString>
          <CharString index="373">
            180 callgsubr
            -530 return
          </CharString>
          <CharString index="374">
            -81 callgsubr
            123 275 callgsubr
            vlineto
            -24 -7 -8 -26 vhcurveto
            -109 -91 callgsubr
            return
          </CharString>
          <CharString index="375">
            hhcurveto
            427 -78 callsubr
            153 276 callsubr
          </CharString>
          <CharString index="376">
            21 callsubr
            -414 hlineto
            -98 callgsubr
            return
          </CharString>
          <CharString index="377">
            rmoveto
            -90 callgsubr
            99 vlineto
            return
          </CharString>
          <CharString index="378">
            120 -75 callgsubr
            return
          </CharString>
          <CharString index="379">
            -63 callgsubr
            54 return
          </CharString>
          <CharString index="380">
            rmoveto
            -474 -58 474 hlineto
            return
          </CharString>
          <CharString index="381">
            -60 callsubr
            -105 return
          </CharString>
          <CharString index="382">
            46 callsubr
            -105 -72 -59 72 -426 184 426 150 -426 184 return
          </CharString>
          <CharString index="383">
            -426 287 callgsubr
          </CharString>
          <CharString index="384">
            21 6 6 22 vhcurveto
            29 59 -29 hlineto
            -22 -6 7 20 hvcurveto
            28 vlineto
            20 6 7 22 vhcurveto
            return
          </CharString>
          <CharString index="385">
            -394 142 callgsubr
            return
          </CharString>
          <CharString index="386">
            -62 vlineto
            -28 -9 -8 -31 vhcurveto
            -87 -43 98 -117 hhcurveto
            -146 hlineto
            -54 -24 -27 -51 hvcurveto
            return
          </CharString>
          <CharString index="387">
            -47 callgsubr
            199 563 return
          </CharString>
          <CharString index="388">
            176 callgsubr
            -47 -102 callsubr
            return
          </CharString>
          <CharString index="389">
            292 callgsubr
            -47 hhcurveto
            return
          </CharString>
          <CharString index="390">
            rmoveto
            -26 -7 7 25 hvcurveto
            return
          </CharString>
          <CharString index="391">
            -26 -8 9 24 hvcurveto
            return
          </CharString>
          <CharString index="392">
            397 699 rmoveto
            -424 -835 rlineto
            161 hlineto
            424 835 rlineto
            endchar
          </CharString>
          <CharString index="393">
            199 135 callgsubr
          </CharString>
          <CharString index="394">
            vhcurveto
            -5 vlineto
            -43 return
          </CharString>
          <CharString index="395">
            hlineto
            96 -110 63 -72 40 -31 29 -16 rlinecurve
            return
          </CharString>
          <CharString index="396">
            vlineto
            -45 20 -19 43 -1 287 callsubr
            -20 return
          </CharString>
          <CharString index="397">
            hlineto
            191 callgsubr
            return
          </CharString>
          <CharString index="398">
            rmoveto
            -14 -11 -3 -6 -7 hvcurveto
            return
          </CharString>
          <CharString index="399">
            rmoveto
            474 58 -474 hlineto
            return
          </CharString>
          <CharString index="400">
            vlineto
            34 callgsubr
            return
          </CharString>
          <CharString index="401">
            -126 -27 callsubr
            return
          </CharString>
          <CharString index="402">
            -93 callsubr
            199 -69 callsubr
            return
          </CharString>
          <CharString index="403">
            -409 vlineto
            242 callsubr
            return
          </CharString>
          <CharString index="404">
            345 -93 callsubr
            197 124 callsubr
          </CharString>
          <CharString index="405">
            -244 hlineto
            310 callgsubr
            return
          </CharString>
          <CharString index="406">
            277 hlineto
            -67 callsubr
            return
          </CharString>
          <CharString index="407">
            vlineto
            -61 callgsubr
            return
          </CharString>
          <CharString index="408">
            -104 callgsubr
            233 return
          </CharString>
          <CharString index="409">
            rmoveto
            137 118 59 return
          </CharString>
          <CharString index="410">
            53 vhcurveto
            112 return
          </CharString>
          <CharString index="411">
            -38 hlineto
            243 callsubr
            return
          </CharString>
          <CharString index="412" raw="1">
            f7bdf71d 15f76f1d 0b 
          </CharString>
          <CharString index="413">
            -622 rmoveto
            192 622 -192 hlineto
            return
          </CharString>
          <CharString index="414">
            19 101 callsubr
            -19 -19 return
          </CharString>
          <CharString index="415">
            -18 293 callgsubr
            18 -18 return
          </CharString>
          <CharString index="416" raw="1">
            711e2c06 710b  
          </CharString>
          <CharString index="417">
            325 callgsubr
            -23 return
          </CharString>
          <CharString index="418">
            vlineto
            -84 callsubr
            -246 return
          </CharString>
          <CharString index="419">
            230 75 callgsubr
            return
          </CharString>
          <CharString index="420">
            169 -48 callsubr
            return
          </CharString>
          <CharString index="421">
            hlineto
            23 7 -8 -20 12 hvcurveto
            106 -183 rlineto
            187 hlineto
            endchar
          </CharString>
          <CharString index="422">
            -78 205 callsubr
            return
          </CharString>
          <CharString index="423">
            301 callgsubr
            -70 return
          </CharString>
          <CharString index="424">
            94 -46 callsubr
            return
          </CharString>
          <CharString index="425">
            197 137 -197 hlineto
            return
          </CharString>
          <CharString index="426">
            vlineto
            340 callsubr
            return
          </CharString>
          <CharString index="427">
            hlineto
            -194 -172 rlineto
            return
          </CharString>
          <CharString index="428">
            vlineto
            -391 -296 rlineto
            return
          </CharString>
          <CharString index="429">
            hlineto
            132 206 rlineto
            return
          </CharString>
          <CharString index="430">
            vlineto
            -53 24 -24 53 vhcurveto
            return
          </CharString>
          <CharString index="431">
            -333 -316 return
          </CharString>
          <CharString index="432">
            105 vlineto
            345 callgsubr
            return
          </CharString>
          <CharString index="433">
            -91 callgsubr
            160 -106 callgsubr
            return
          </CharString>
          <CharString index="434">
            -25 callgsubr
            -183 -80 callsubr
            return
          </CharString>
          <CharString index="435">
            hlineto
            -98 callgsubr
            -216 -102 callsubr
            return
          </CharString>
          <CharString index="436">
            53 hvcurveto
            138 263 callgsubr
            return
          </CharString>
          <CharString index="437" raw="1">
            07720a0b   
          </CharString>
          <CharString index="438">
            -75 callgsubr
            -271 -53 callsubr
            return
          </CharString>
          <CharString index="439">
            rmoveto
            66 hlineto
            132 205 rlineto
            71 -198 vlineto
            endchar
          </CharString>
          <CharString index="440">
            -8 27 callgsubr
            return
          </CharString>
          <CharString index="441">
            -105 callsubr
            108 -70 callgsubr
            return
          </CharString>
          <CharString index="442">
            -45 344 callgsubr
            return
          </CharString>
          <CharString index="443">
            -69 callgsubr
            59 -116 hlineto
            return
          </CharString>
          <CharString index="444">
            -106 callgsubr
            107 -70 callgsubr
            return
          </CharString>
          <CharString index="445">
            -45 callsubr
            168 return
          </CharString>
          <CharString index="446">
            hlineto
            -92 324 callgsubr
            return
          </CharString>
          <CharString index="447">
            -24 -45 callgsubr
            return
          </CharString>
          <CharString index="448">
            176 callgsubr
            -5 -102 callsubr
            return
          </CharString>
          <CharString index="449">
            vlineto
            -45 19 -19 44 -1 vhcurveto
            -4 vlineto
            -44 -1 -19 return
          </CharString>
          <CharString index="450">
            134 866 0 callgsubr
            -886 -59 580 return
          </CharString>
          <CharString index="451">
            18 38 hvcurveto
            -142 14 rmoveto
            -18 -3 -4 -19 vhcurveto
            return
          </CharString>
          <CharString index="452">
            hlineto
            -36 -20 -22 -35 hvcurveto
            -124 31 vlineto
            endchar
          </CharString>
          <CharString index="453">
            -59 456 -78 -285 return
          </CharString>
          <CharString index="454">
            vlineto
            53 24 24 53 hvcurveto
            return
          </CharString>
          <CharString index="455">
            -45 19 197 callgsubr
            return
          </CharString>
          <CharString index="456">
            vlineto
            48 -16 30 -56 vhcurveto
            return
          </CharString>
          <CharString index="457">
            hlineto
            -127 -172 rlineto
            return
          </CharString>
          <CharString index="458">
            hlineto
            361 callsubr
            return
          </CharString>
          <CharString index="459">
            664 hmoveto
            59 return
          </CharString>
          <CharString index="460">
            -21 22 -40 3 vhcurveto
            40 2 21 23 44 vvcurveto
            return
          </CharString>
          <CharString index="461">
            278 rmoveto
            117 -32 callgsubr
            return
          </CharString>
          <CharString index="462">
            42 253 rmoveto
            609 114 -609 hlineto
            return
          </CharString>
          <CharString index="463">
            669 -183 -669 vlineto
            return
          </CharString>
          <CharString index="464">
            -18 43 -1 287 callsubr
            return
          </CharString>
          <CharString index="465">
            vlineto
            191 callgsubr
            return
          </CharString>
          <CharString index="466">
            rmoveto
            -152 78 152 hlineto
            return
          </CharString>
          <CharString index="467">
            192 182 -192 hlineto
            return
          </CharString>
          <CharString index="468">
            -26 -6 9 24 hvcurveto
            return
          </CharString>
          <CharString index="469" raw="1">
            fb110671 0b  
          </CharString>
          <CharString index="470">
            137 callsubr
            146 return
          </CharString>
          <CharString index="471">
            rmoveto
            37 -17 19 -37 vhcurveto
            -307 hlineto
            -37 return
          </CharString>
          <CharString index="472">
            -86 callgsubr
            -128 hlineto
            -26 -7 8 return
          </CharString>
          <CharString index="473">
            -45 callsubr
            272 139 return
          </CharString>
          <CharString index="474">
            vlineto
            -67 callsubr
            659 92 rmoveto
            return
          </CharString>
          <CharString index="475">
            rmoveto
            191 111 -191 hlineto
            endchar
          </CharString>
          <CharString index="476">
            563 rmoveto
            59 return
          </CharString>
        <CharString name=".notdef">
          -224 endchar
        </CharString>
        <CharString name="A">
          26 260 182 rmoveto
          -32 callsubr
        </CharString>
        <CharString name="AE">
          360 329 190 rmoveto
          200 328 rlineto
          -328 vlineto
          194 -131 rmoveto
          230 258 59 -258 215 295 59 -612 vlineto
          -393 -622 rlineto
          201 hlineto
          80 131 rlineto
          235 -131 502 59 hlineto
          endchar
        </CharString>
        <CharString name="Aacute">
          23 623 820 31 callsubr
          -192 -487 rmoveto
          -32 callsubr
        </CharString>
        <CharString name="Abreve">
          23 536 669 67 callsubr
          61 -487 rmoveto
          -32 callsubr
        </CharString>
        <CharString name="Acircumflex">
          23 367 758 164 callsubr
          -19 -486 rmoveto
          -32 callsubr
        </CharString>
        <CharString name="Adieresis">
          23 615 789 186 callsubr
          -59 -487 rmoveto
          -32 callsubr
        </CharString>
        <CharString name="Agrave">
          23 437 669 rmoveto
          -138 151 rlineto
          -184 hlineto
          172 -151 rlineto
          -28 -487 rmoveto
          -32 callsubr
        </CharString>
        <CharString name="Amacron">
          23 609 727 273 callsubr
          -350 -487 rmoveto
          -32 callsubr
        </CharString>
        <CharString name="Aogonek">
          23 259 182 rmoveto
          108 326 107 -326 rlineto
          105 -377 226 callsubr
          7 hlineto
          -237 622 rlineto
          -237 hlineto
          -236 -622 rlineto
          186 hlineto
          41 123 rlineto
          253 hlineto
          40 -123 rlineto
          -33 -38 vlineto
          78 callgsubr
        </CharString>
        <CharString name="Aring">
          23 299 767 52 callsubr
          3 -487 rmoveto
          -32 callsubr
        </CharString>
        <CharString name="Atilde">
          23 259 725 rmoveto
          13 5 8 14 vhcurveto
          -9 callgsubr
          vlineto
          -487 vmoveto
          -32 callsubr
        </CharString>
        <CharString name="B">
          9 75 0 callgsubr
          -622 499 vlineto
          53 26 26 53 hvcurveto
          165 vlineto
          43 353 callsubr
          162 -46 callsubr
          -106 -538 rmoveto
          -19 -10 -6 -24 vhcurveto
          -166 223 169 -60 callsubr
          121 vmoveto
          -33 callgsubr
          -169 222 169 346 callgsubr
        </CharString>
        <CharString name="C">
          -24 638 398 -12 callsubr
        </CharString>
        <CharString name="CR">
          -712 endchar
        </CharString>
        <CharString name="Cacute">
          -34 593 820 31 callsubr
          213 -271 -12 callsubr
        </CharString>
        <CharString name="Ccaron">
          -34 435 669 -15 callsubr
          373 -271 -12 callsubr
        </CharString>
        <CharString name="Ccedilla">
          -34 257 164 callgsubr
          377 445 -12 callsubr
        </CharString>
        <CharString name="D">
          11 462 214 callsubr
          -163 504 163 368 callgsubr
          -622 501 vlineto
          148 callsubr
        </CharString>
        <CharString name="Dcaron">
          15 443 669 -15 callsubr
          199 -579 38 callgsubr
          -163 504 163 368 callgsubr
          -622 501 vlineto
          148 callsubr
        </CharString>
        <CharString name="Dcroat">
          44 490 214 callsubr
          -162 225 120 62 -120 217 162 -60 callsubr
          -386 90 rmoveto
          -276 -68 -62 68 -284 500 vlineto
          148 callsubr
        </CharString>
        <CharString name="E">
          -91 275 59 rmoveto
          312 callsubr
          512 59 vlineto
          endchar
        </CharString>
        <CharString name="Eacute">
          -96 575 819 31 callsubr
          -131 -609 rmoveto
          312 callsubr
          512 59 vlineto
          endchar
        </CharString>
        <CharString name="Ecaron">
          -96 421 669 -15 callsubr
          25 -380 rmoveto
          75 callgsubr
          512 59 -312 hlineto
          endchar
        </CharString>
        <CharString name="Ecircumflex">
          -96 327 759 164 callsubr
          34 -380 rmoveto
          75 callgsubr
          512 59 -312 hlineto
          endchar
        </CharString>
        <CharString name="Edieresis">
          -50 570 789 186 callsubr
          -1 -610 rmoveto
          312 callsubr
          513 59 vlineto
          endchar
        </CharString>
        <CharString name="Edotaccent">
          -96 433 792 300 callgsubr
          -161 -610 rmoveto
          312 callsubr
          512 59 vlineto
          endchar
        </CharString>
        <CharString name="Egrave">
          -96 407 668 156 callgsubr
          16 -609 rmoveto
          312 callsubr
          512 59 vlineto
          endchar
        </CharString>
        <CharString name="Emacron">
          -96 559 727 273 callsubr
          -287 -610 rmoveto
          312 callsubr
          512 59 vlineto
          endchar
        </CharString>
        <CharString name="Eogonek">
          -96 448 -195 94 callsubr
          104 -1 45 -312 312 callsubr
          330 295 callgsubr
          hlineto
          endchar
        </CharString>
        <CharString name="Eth">
          20 475 214 callsubr
          -162 225 120 62 -120 217 162 368 callgsubr
          -276 -68 -62 68 -284 501 vlineto
          148 callsubr
        </CharString>
        <CharString name="Euro">
          4 671 398 rmoveto
          145 -46 callsubr
          -412 46 callsubr
          -138 -76 -59 76 -69 -76 -59 76 -139 -71 callgsubr
          412 -41 callgsubr
          143 -193 -132 -17 callsubr
          -122 -63 callgsubr
          128 117 59 -117 69 117 59 -117 127 -32 callgsubr
          122 -60 callsubr
          -134 vlineto
          endchar
        </CharString>
        <CharString name="F">
          -111 574 369 callsubr
          -499 -622 200 265 260 59 -260 239 vlineto
          endchar
        </CharString>
        <CharString name="G">
          -12 639 418 25 callgsubr
        </CharString>
        <CharString name="Gbreve">
          -21 516 669 67 callsubr
          457 -251 25 callgsubr
        </CharString>
        <CharString name="H">
          57 501 0 callgsubr
          -281 -233 281 -193 -622 193 282 233 -282 193 622 vlineto
          endchar
        </CharString>
        <CharString name="I">
          -349 81 0 callgsubr
          -622 200 622 vlineto
          endchar
        </CharString>
        <CharString name="Iacute">
          200 callsubr
          -169 46 83 callsubr
          endchar
        </CharString>
        <CharString name="Icircumflex">
          200 callsubr
          -364 47 rmoveto
          178 hlineto
          89 90 46 callgsubr
          endchar
        </CharString>
        <CharString name="Idieresis">
          -371 76 0 callgsubr
          -622 199 622 vlineto
          -345 166 rmoveto
          213 callgsubr
          101 hmoveto
          -120 196 120 vlineto
          endchar
        </CharString>
        <CharString name="Idotaccent">
          -379 72 572 rmoveto
          -572 199 572 vlineto
          -197 170 rmoveto
          -123 191 123 vlineto
          endchar
        </CharString>
        <CharString name="Igrave">
          200 callsubr
          -166 198 162 callsubr
        </CharString>
        <CharString name="Imacron">
          200 callsubr
          -334 47 292 callsubr
          endchar
        </CharString>
        <CharString name="Iogonek">
          -371 137 -195 304 callgsubr
          622 -200 -622 16 295 callgsubr
          hlineto
          endchar
        </CharString>
        <CharString name="J">
          -80 27 238 rmoveto
          -159 -71 callgsubr
          380 -41 callgsubr
          543 -194 -532 -17 callsubr
          -88 -63 callgsubr
          148 vlineto
          endchar
        </CharString>
        <CharString name="K">
          13 493 0 callgsubr
          278 callgsubr
          -626 hmoveto
          -622 188 622 vlineto
          endchar
        </CharString>
        <CharString name="L">
          -136 268 59 212 callsubr
        </CharString>
        <CharString name="Lacute">
          -144 423 819 31 callsubr
          14 -609 212 callsubr
        </CharString>
        <CharString name="Lcaron">
          -144 254 670 -15 callsubr
          185 -611 212 callsubr
        </CharString>
        <CharString name="Lslash">
          -127 274 59 rmoveto
          240 vlineto
          156 52 rlineto
          68 vlineto
          -156 -52 rlineto
          255 -193 -319 vlineto
          -124 -41 rlineto
          -68 vlineto
          124 41 rlineto
          -235 484 59 vlineto
          endchar
        </CharString>
        <CharString name="M">
          207 520 135 rmoveto
          151 315 rlineto
          -450 174 622 -206 vlineto
          -181 -380 -177 380 rlineto
          -206 -622 173 448 hlineto
          149 -313 rlineto
          endchar
        </CharString>
        <CharString name="N">
          32 491 126 callsubr
          endchar
        </CharString>
        <CharString name="NULL">
          -712 endchar
        </CharString>
        <CharString name="Nacute">
          28 296 668 83 callsubr
          54 -197 217 callsubr
        </CharString>
        <CharString name="Ncaron">
          28 284 669 132 callsubr
          384 -202 217 callsubr
        </CharString>
        <CharString name="Ntilde">
          28 488 126 callsubr
          -379 124 rmoveto
          -9 callgsubr
          56 vlineto
          13 5 8 14 vhcurveto
          endchar
        </CharString>
        <CharString name="O">
          -4 640 113 callsubr
          endchar
        </CharString>
        <CharString name="OE">
          277 455 214 callsubr
          -132 -63 callgsubr
          442 -32 callgsubr
          132 -60 callsubr
          195 -473 rmoveto
          230 249 59 -249 215 286 59 -429 -13 vlineto
          8 -17 -21 5 -27 hhcurveto
          -295 46 callsubr
          -464 -71 callgsubr
          295 hlineto
          27 21 4 8 17 hvcurveto
          -12 442 59 vlineto
          endchar
        </CharString>
        <CharString name="Oacute">
          -7 285 669 83 callsubr
          215 -277 -34 callgsubr
          endchar
        </CharString>
        <CharString name="Ocircumflex">
          -7 86 669 rmoveto
          178 hlineto
          89 90 46 callgsubr
          372 -282 -34 callgsubr
          endchar
        </CharString>
        <CharString name="Odieresis">
          -22 639 543 rmoveto
          53 -26 26 -53 vhcurveto
          -415 46 callsubr
          -464 -71 callgsubr
          415 -41 callgsubr
          -193 16 callsubr
          -42 257 rmoveto
          -119 196 119 vlineto
          -494 hmoveto
          -119 197 119 vlineto
          endchar
        </CharString>
        <CharString name="Ograve">
          105 callgsubr
          -151 289 162 callsubr
        </CharString>
        <CharString name="Ohungarumlaut">
          -22 145 0 callgsubr
          14 callsubr
          -464 -71 callgsubr
          415 -41 callgsubr
          464 -46 callsubr
          -114 -90 rmoveto
          -442 vlineto
          1 callsubr
          -127 296 rmoveto
          -141 264 callsubr
          176 158 rlineto
          77 hmoveto
          -147 264 callsubr
          182 158 rlineto
          endchar
        </CharString>
        <CharString name="Omacron">
          -7 114 669 292 callsubr
          524 -184 -34 callgsubr
          endchar
        </CharString>
        <CharString name="Oslash">
          7 462 89 38 callgsubr
          -145 -63 callgsubr
          30 vlineto
          207 264 rlineto
          -207 150 319 callgsubr
          145 -60 callsubr
          -39 vlineto
          -207 -264 rlineto
          420 425 rmoveto
          -87 hlineto
          -26 -33 rlineto
          -413 46 callsubr
          -464 vlineto
          -27 7 -20 13 -13 vhcurveto
          -41 -52 rlineto
          87 hlineto
          26 33 rlineto
          407 -41 callgsubr
          464 vlineto
          24 -6 19 -11 13 vhcurveto
          endchar
        </CharString>
        <CharString name="Otilde">
          105 callgsubr
          -181 214 rmoveto
          -9 callgsubr
          56 vlineto
          13 5 8 14 vhcurveto
          endchar
        </CharString>
        <CharString name="P">
          -14 464 293 38 callgsubr
          -165 301 165 -60 callsubr
          -389 90 rmoveto
          -622 193 203 310 vlineto
          53 26 26 53 hvcurveto
          261 84 callgsubr
        </CharString>
        <CharString name="Q">
          -17 250 532 319 callgsubr
          132 -60 callsubr
          -442 -17 callsubr
          -132 -63 callgsubr
          394 -187 rmoveto
          -125 97 rlineto
          35 -41 callgsubr
          464 -46 callsubr
          -415 46 callsubr
          -464 -71 callgsubr
          174 hlineto
          114 -97 rlineto
          endchar
        </CharString>
        <CharString name="R">
          4 268 563 51 callgsubr
        </CharString>
        <CharString name="Racute">
          -1 595 819 31 callsubr
          -158 -105 51 callgsubr
        </CharString>
        <CharString name="Rcaron">
          -1 442 669 -15 callsubr
          -3 -106 51 callgsubr
        </CharString>
        <CharString name="S">
          -34 427 90 59 callsubr
        </CharString>
        <CharString name="Sacute">
          -36 275 668 83 callsubr
          14 -729 59 callsubr
        </CharString>
        <CharString name="Scaron">
          -36 253 669 132 callsubr
          354 -734 59 callsubr
        </CharString>
        <CharString name="T">
          -122 584 622 165 callsubr
        </CharString>
        <CharString name="Tcaron">
          -119 382 669 -15 callsubr
          377 -47 165 callsubr
        </CharString>
        <CharString name="Thorn">
          -14 456 192 38 callgsubr
          -155 300 155 -60 callsubr
          -186 90 rmoveto
          102 -193 -622 193 102 300 vlineto
          53 26 26 53 hvcurveto
          260 84 callgsubr
        </CharString>
        <CharString name="U">
          3 261 172 callgsubr
          endchar
        </CharString>
        <CharString name="Uacute">
          5 286 669 83 callsubr
          -162 -198 4 callsubr
          endchar
        </CharString>
        <CharString name="Ucircumflex">
          5 90 669 rmoveto
          178 hlineto
          89 90 46 callgsubr
          -8 -203 4 callsubr
          endchar
        </CharString>
        <CharString name="Udieresis">
          5 455 0 callgsubr
          -532 -17 callsubr
          -132 -63 callgsubr
          532 -193 -543 -71 callgsubr
          422 -41 callgsubr
          543 vlineto
          -539 167 rmoveto
          -120 196 120 vlineto
          101 hmoveto
          213 callgsubr
          endchar
        </CharString>
        <CharString name="Ugrave">
          162 callgsubr
          43 731 162 callsubr
        </CharString>
        <CharString name="Uhungarumlaut">
          -15 261 622 289 callgsubr
          422 -41 callgsubr
          543 -193 -532 -17 callsubr
          -132 -63 callgsubr
          302 736 rmoveto
          -147 264 callsubr
          182 158 rlineto
          -415 hmoveto
          -141 264 callsubr
          176 158 rlineto
          endchar
        </CharString>
        <CharString name="Umacron">
          162 callgsubr
          -141 579 292 callsubr
          endchar
        </CharString>
        <CharString name="Uogonek">
          5 455 0 callgsubr
          -532 -17 callsubr
          -131 -63 callgsubr
          532 -193 -543 -71 callgsubr
          118 187 callsubr
          120 -41 callgsubr
          543 vlineto
          endchar
        </CharString>
        <CharString name="Uring">
          5 547 778 122 callsubr
          -168 -145 4 callsubr
          endchar
        </CharString>
        <CharString name="V">
          9 510 0 callgsubr
          -150 -495 -149 495 rlineto
          -195 hlineto
          230 -622 rlineto
          228 hlineto
          231 622 rlineto
          endchar
        </CharString>
        <CharString name="W">
          407 916 0 callgsubr
          -127 -487 -136 487 rlineto
          -189 hlineto
          -136 -487 -116 487 rlineto
          -195 hlineto
          199 -622 rlineto
          224 hlineto
          119 426 119 -426 rlineto
          225 hlineto
          199 622 rlineto
          endchar
        </CharString>
        <CharString name="X">
          -1 455 323 rmoveto
          217 299 rlineto
          -197 hlineto
          -124 -194 -124 194 rlineto
          -206 hlineto
          226 -312 -234 -310 rlineto
          196 hlineto
          142 209 141 -209 rlineto
          206 hlineto
          endchar
        </CharString>
        <CharString name="Y">
          -13 693 622 255 callgsubr
          206 vlineto
          endchar
        </CharString>
        <CharString name="Yacute">
          -17 599 820 31 callsubr
          264 251 callgsubr
          206 vlineto
          endchar
        </CharString>
        <CharString name="Ydieresis">
          -13 305 789 204 callsubr
          297 120 rmoveto
          -196 -120 196 hlineto
          91 251 callgsubr
          207 vlineto
          endchar
        </CharString>
        <CharString name="Z">
          -65 606 622 251 callsubr
        </CharString>
        <CharString name="Zacute">
          -67 583 820 31 callsubr
          194 242 callgsubr
        </CharString>
        <CharString name="Zcaron">
          -67 427 669 -15 callsubr
          -197 -106 rmoveto
          132 callgsubr
          59 -549 vlineto
          endchar
        </CharString>
        <CharString name="Zdotaccent">
          -67 438 792 300 callgsubr
          167 242 callgsubr
        </CharString>
        <CharString name="a">
          -50 276 59 -73 callsubr
        </CharString>
        <CharString name="aacute">
          -55 580 683 31 callsubr
          -137 -473 -73 callsubr
        </CharString>
        <CharString name="abreve">
          -55 497 532 67 callsubr
          112 -473 -73 callsubr
        </CharString>
        <CharString name="acircumflex">
          -55 328 153 callsubr
          32 -473 rmoveto
          17 callsubr
          98 hlineto
          25 11 -8 -23 hvcurveto
          -305 vlineto
          -22 -11 -9 -25 vhcurveto
          36 397 rmoveto
          -44 callsubr
          -29 184 485 -184 vlineto
          endchar
        </CharString>
        <CharString name="acute">
          -45 167 506 83 callsubr
          endchar
        </CharString>
        <CharString name="adieresis">
          -55 586 651 204 callsubr
          -298 120 204 callsubr
          -17 -472 -73 callsubr
        </CharString>
        <CharString name="ae">
          299 731 426 rmoveto
          -37 callsubr
          -117 -181 117 -32 callgsubr
          -337 -367 191 callsubr
          88 vlineto
          158 37 rlineto
          -125 vlineto
          -25 -7 -6 -25 vhcurveto
          567 160 rmoveto
          4 4 183 -46 callsubr
          -275 hlineto
          -75 -13 -13 -24 -7 hvcurveto
          24 -8 -23 13 -76 hhcurveto
          -246 46 callsubr
          -103 184 93 -32 callgsubr
          95 hlineto
          25 7 -5 -25 hvcurveto
          -117 vlineto
          -342 -79 rlineto
          -122 -71 callgsubr
          246 hlineto
          76 23 13 24 8 hvcurveto
          -24 7 13 -13 75 hhcurveto
          273 -41 callgsubr
          74 -179 -63 -17 callsubr
          -117 138 callsubr
          vlineto
          endchar
        </CharString>
        <CharString name="agrave">
          -55 436 532 156 callgsubr
          -14 -473 -73 callsubr
        </CharString>
        <CharString name="amacron">
          -55 560 596 273 callsubr
          -289 -479 -73 callsubr
        </CharString>
        <CharString name="ampersand">
          160 272 59 191 callsubr
          79 vlineto
          25 10 12 27 10 vhcurveto
          34 12 201 -169 rlineto
          -204 473 319 callgsubr
          106 274 callsubr
          vlineto
          -31 -20 -14 -47 -17 vhcurveto
          -35 -13 rlineto
          -49 42 -17 19 39 vvcurveto
          540 -497 rmoveto
          -66 56 rlineto
          27 14 14 28 39 vvcurveto
          145 -149 -136 vlineto
          -217 182 75 27 rlineto
          82 30 46 31 75 vvcurveto
          97 -46 callsubr
          -378 46 callsubr
          -97 vlineto
          -63 32 -25 71 -59 vhcurveto
          -61 -22 rlineto
          -82 -28 -27 -24 -60 vvcurveto
          -86 -71 callgsubr
          446 hlineto
          53 -45 rlineto
          endchar
        </CharString>
        <CharString name="aogonek">
          -55 271 59 rmoveto
          17 callsubr
          98 hlineto
          25 11 -8 -23 hvcurveto
          -305 vlineto
          -22 -11 -9 -25 vhcurveto
          82 -254 279 callgsubr
          -29 hlineto
          -44 callsubr
          -62 -38 vlineto
          78 callgsubr
        </CharString>
        <CharString name="approxequal">
          97 569 411 rmoveto
          279 callsubr
          -154 182 62 vlineto
          28 9 7 31 vhcurveto
          95 55 -97 98 hhcurveto
          145 hlineto
          54 25 27 51 hvcurveto
          154 vlineto
          endchar
        </CharString>
        <CharString name="aring">
          -55 258 630 52 callsubr
          56 -473 -73 callsubr
        </CharString>
        <CharString name="asciicircum">
          -58 217 668 rmoveto
          -194 -340 rlineto
          170 hlineto
          134 239 133 -239 rlineto
          171 hlineto
          -194 340 rlineto
          endchar
        </CharString>
        <CharString name="asciitilde">
          91 277 260 rmoveto
          95 55 -98 98 hhcurveto
          145 hlineto
          54 24 28 51 hvcurveto
          94 -182 279 callsubr
          -94 182 61 vlineto
          28 9 8 31 vhcurveto
          endchar
        </CharString>
        <CharString name="asterisk">
          -151 215 662 rmoveto
          -61 vlineto
          -31 6 -29 9 -25 vhcurveto
          -22 17 -27 17 -29 10 -58 19 rcurveline
          -43 -131 58 -19 28 -9 30 -3 28 -1 rlinecurve
          -23 -15 -25 -20 -18 -25 -36 -49 rcurveline
          111 -81 36 49 18 25 12 28 8 25 rlinecurve
          7 -26 12 -30 18 -26 36 -50 rcurveline
          111 82 -36 49 -17 25 -23 20 -21 15 rlinecurve
          27 -2 31 2 30 10 59 19 rcurveline
          -44 131 -57 -19 -29 -10 -26 -15 -21 -15 rlinecurve
          10 26 7 30 32 vvcurveto
          61 vlineto
          endchar
        </CharString>
        <CharString name="at">
          444 410 426 rmoveto
          -44 -22 -22 -44 hvcurveto
          -216 vlineto
          -44 22 -22 44 vhcurveto
          187 hlineto
          28 18 9 22 5 hvcurveto
          -50 378 vlineto
          44 22 22 44 hvcurveto
          372 vlineto
          44 -22 22 -44 vhcurveto
          -889 hlineto
          -44 -22 -22 -44 hvcurveto
          -502 vlineto
          -44 22 -22 44 vhcurveto
          718 60 -607 hlineto
          -22 -4 4 22 hvcurveto
          462 vlineto
          22 4 4 22 vhcurveto
          667 hlineto
          22 4 -4 -22 hvcurveto
          -333 vlineto
          -22 -4 -4 -22 vhcurveto
          -119 308 -152 -25 hlineto
          17 -7 -16 8 -24 hhcurveto
          -102 -85 rmoveto
          22 4 4 22 vhcurveto
          93 hlineto
          20 9 -6 -18 1 hvcurveto
          -182 vlineto
          -18 -1 -9 -6 -20 hhcurveto
          -93 hlineto
          -22 -4 4 22 hvcurveto
          endchar
        </CharString>
        <CharString name="atilde">
          -55 224 588 rmoveto
          13 5 8 14 vhcurveto
          -9 callgsubr
          vlineto
          47 -473 -73 callsubr
        </CharString>
        <CharString name="b">
          -50 417 214 callsubr
          -98 hlineto
          -25 -11 9 22 hvcurveto
          305 vlineto
          23 11 8 25 vhcurveto
          98 -60 callsubr
          -108 90 291 callgsubr
          213 -184 -669 184 29 vlineto
          -19 9 16 -10 32 hhcurveto
          213 327 callgsubr
          endchar
        </CharString>
        <CharString name="backslash">
          -229 -71 699 rmoveto
          423 -835 rlineto
          161 hlineto
          -424 835 rlineto
          endchar
        </CharString>
        <CharString name="bar">
          -387 78 778 rmoveto
          -936 170 936 vlineto
          endchar
        </CharString>
        <CharString name="braceleft">
          -282 340 568 rmoveto
          57 8 35 49 vhcurveto
          56 59 -88 hlineto
          -145 -73 -39 -146 hvcurveto
          -162 vlineto
          -64 -26 -28 -67 vhcurveto
          -12 -59 12 hlineto
          67 26 -27 -63 hvcurveto
          -167 vlineto
          -145 73 -40 145 vhcurveto
          88 59 -56 hlineto
          -49 -8 36 56 hvcurveto
          193 vlineto
          69 -31 53 -62 4 vhcurveto
          62 3 31 52 71 vvcurveto
          endchar
        </CharString>
        <CharString name="braceright">
          -270 103 375 rmoveto
          -71 30 -52 63 -3 vhcurveto
          -63 -4 -30 -53 -69 vvcurveto
          -193 vlineto
          -56 -8 -36 -49 vhcurveto
          -57 -59 88 hlineto
          146 72 40 145 hvcurveto
          167 vlineto
          63 26 27 67 vhcurveto
          12 59 -12 hlineto
          -67 -26 28 64 hvcurveto
          162 vlineto
          146 -72 39 -146 vhcurveto
          -88 -59 57 hlineto
          49 8 -35 -57 hvcurveto
          endchar
        </CharString>
        <CharString name="bracketleft">
          -343 405 660 rmoveto
          59 -334 -939 334 59 -140 821 vlineto
          endchar
        </CharString>
        <CharString name="bracketright">
          -343 298 719 rmoveto
          -334 -59 140 -821 -140 -59 334 hlineto
          endchar
        </CharString>
        <CharString name="breve">
          -45 419 655 rmoveto
          -54 vlineto
          -26 -5 -5 -26 vhcurveto
          -109 272 callsubr
          -163 -64 -71 callgsubr
          338 hlineto
          351 callgsubr
          vlineto
          endchar
        </CharString>
        <CharString name="brokenbar">
          -394 74 252 rmoveto
          -410 170 410 vlineto
          117 vmoveto
          409 -170 -409 vlineto
          endchar
        </CharString>
        <CharString name="bullet">
          -201 256 452 rmoveto
          -100 -82 -62 -76 -75 82 -63 100 99 83 63 75 76 -83 62 -99 hvcurveto
          endchar
        </CharString>
        <CharString name="c">
          -85 583 312 rmoveto
          317 callsubr
          -364 -17 callgsubr
          364 -41 callgsubr
          92 -179 -81 -17 callsubr
          -97 hlineto
          17 callsubr
          97 -60 callsubr
          -83 vlineto
          endchar
        </CharString>
        <CharString name="cacute">
          -94 571 683 31 callsubr
          179 -220 rmoveto
          317 callsubr
          -364 -17 callgsubr
          364 -41 callgsubr
          92 -179 -81 -17 callsubr
          -97 hlineto
          17 callsubr
          97 -60 callsubr
          -83 vlineto
          endchar
        </CharString>
        <CharString name="caron">
          -45 246 500 132 callsubr
          endchar
        </CharString>
        <CharString name="ccaron">
          -94 398 532 -15 callsubr
          -89 -47 4 callgsubr
          364 -41 callgsubr
          92 -179 -81 -17 callsubr
          -97 hlineto
          17 callsubr
          97 -60 callsubr
          -83 179 94 84 callgsubr
        </CharString>
        <CharString name="ccedilla">
          -94 234 164 callgsubr
          344 359 rmoveto
          317 callsubr
          -364 -17 callgsubr
          364 -41 callgsubr
          92 -179 -81 -17 callsubr
          -97 hlineto
          17 callsubr
          97 -60 callsubr
          -83 vlineto
          endchar
        </CharString>
        <CharString name="cedilla">
          -45 301 164 callgsubr
          endchar
        </CharString>
        <CharString name="cent">
          -94 578 312 rmoveto
          317 callsubr
          -88 77 -187 -77 -89 -17 callgsubr
          89 -79 187 79 88 -41 callgsubr
          92 -179 -81 -17 callsubr
          -97 hlineto
          17 callsubr
          97 -60 callsubr
          -83 vlineto
          endchar
        </CharString>
        <CharString name="circumflex">
          -45 66 506 rmoveto
          178 hlineto
          89 90 46 callgsubr
          endchar
        </CharString>
        <CharString name="colon">
          -401 57 362 rmoveto
          -239 197 239 vlineto
          endchar
        </CharString>
        <CharString name="comma">
          -408 57 -140 rmoveto
          338 callgsubr
        </CharString>
        <CharString name="commaaccent">
          -45 241 -264 133 callgsubr
        </CharString>
        <CharString name="copyright">
          361 1012 339 rmoveto
          179 -71 104 -241 vhcurveto
          -328 hlineto
          -241 -71 -104 -179 hvcurveto
          -59 vlineto
          -179 71 -101 241 vhcurveto
          328 hlineto
          241 71 101 179 hvcurveto
          -608 -221 rmoveto
          -140 -49 67 142 hvcurveto
          83 vlineto
          142 49 70 140 vhcurveto
          265 hlineto
          140 48 -70 -142 hvcurveto
          -83 vlineto
          -142 -48 -67 -140 vhcurveto
          -67 181 38 callgsubr
          -68 -63 callgsubr
          147 -32 callgsubr
          68 -60 callsubr
          -37 134 48 -46 callsubr
          -239 46 callsubr
          -169 -71 callgsubr
          239 -41 callgsubr
          49 -134 vlineto
          endchar
        </CharString>
        <CharString name="currency">
          78 346 167 rmoveto
          -72 -26 8 73 hvcurveto
          84 vlineto
          73 26 24 72 vhcurveto
          100 hlineto
          71 26 -24 -73 hvcurveto
          -84 vlineto
          -73 -26 -8 -71 vhcurveto
          237 178 rmoveto
          24 -3 21 -7 19 vhcurveto
          58 57 -97 99 -81 -79 rlineto
          1 -15 -15 1 -17 hhcurveto
          -221 hlineto
          -17 -16 -1 -2 -14 hvcurveto
          -82 80 -97 -99 59 -58 rlineto
          -7 -18 -3 -21 -24 vvcurveto
          -93 vlineto
          -25 3 -22 7 -18 vhcurveto
          -59 -58 97 -99 82 80 rlineto
          -1 15 15 -1 17 hhcurveto
          221 hlineto
          17 15 1 1 14 hvcurveto
          82 -80 97 99 -58 57 rlineto
          7 19 3 22 25 vvcurveto
          endchar
        </CharString>
        <CharString name="d">
          -50 276 59 rmoveto
          17 callsubr
          98 hlineto
          25 11 -8 -23 hvcurveto
          -305 vlineto
          -22 -11 -9 -25 vhcurveto
          36 610 rmoveto
          -213 -37 callgsubr
          -29 184 669 vlineto
          endchar
        </CharString>
        <CharString name="dagger">
          -88 582 470 rmoveto
          -171 152 -193 -152 -176 -59 176 -542 193 542 171 hlineto
          endchar
        </CharString>
        <CharString name="daggerdbl">
          -61 595 384 rmoveto
          59 -172 179 -193 -179 -176 -59 176 -286 -176 -59 176 -185 193 185 172 59 -172 286 vlineto
          endchar
        </CharString>
        <CharString name="dcaron">
          -18 405 457 rmoveto
          19 -9 -17 9 -31 -21 callsubr
          31 17 9 19 9 hvcurveto
          -28 184 669 -184 vlineto
          254 hmoveto
          -192 48 vlineto
          91 129 rlineto
          63 vlineto
          -527 -610 rmoveto
          17 callsubr
          98 hlineto
          25 11 -8 -23 hvcurveto
          -305 vlineto
          -22 -11 -9 -25 vhcurveto
          endchar
        </CharString>
        <CharString name="dcroat">
          -50 275 59 rmoveto
          17 callsubr
          98 hlineto
          25 12 -8 -23 hvcurveto
          -305 vlineto
          -22 -12 -9 -25 vhcurveto
          290 540 rmoveto
          -69 70 -184 -70 -150 -59 150 -85 hlineto
          20 -8 -17 10 -32 hhcurveto
          -214 -17 callgsubr
          214 hlineto
          32 17 10 20 8 hvcurveto
          -30 184 540 69 vlineto
          endchar
        </CharString>
        <CharString name="degree">
          -79 575 544 rmoveto
          52 -25 26 -53 vhcurveto
          -360 hlineto
          -53 -25 -26 -52 hvcurveto
          -156 vlineto
          -53 25 -25 53 vhcurveto
          360 hlineto
          53 25 25 53 hvcurveto
          -174 11 38 callgsubr
          -104 -63 callgsubr
          134 -32 callgsubr
          104 346 callgsubr
        </CharString>
        <CharString name="dieresis">
          -45 384 646 rmoveto
          213 callgsubr
          -495 hmoveto
          213 callgsubr
          endchar
        </CharString>
        <CharString name="divide">
          -1 355 callsubr
          209 147 rmoveto
          -94 191 94 vlineto
          -191 -314 rmoveto
          -94 191 94 vlineto
          endchar
        </CharString>
        <CharString name="dollar">
          -35 275 343 191 callsubr
          158 -32 callgsubr
          121 -60 callsubr
          -99 189 110 -46 callsubr
          -107 92 -188 -92 -108 124 callgsubr
          266 -60 callsubr
          -163 -17 callsubr
          -122 -63 callgsubr
          99 -189 -110 -71 callgsubr
          105 -90 188 90 110 156 callsubr
          endchar
        </CharString>
        <CharString name="dotaccent">
          -45 241 522 rmoveto
          191 123 -191 hlineto
          endchar
        </CharString>
        <CharString name="dotlessi">
          -384 71 485 rmoveto
          -485 184 485 vlineto
          endchar
        </CharString>
        <CharString name="dvDDH_DDHA">
          77 675 102 callgsubr
          134 59 -829 -59 495 -78 -320 vlineto
          -53 -23 -24 -53 hvcurveto
          -215 vlineto
          -46 307 callsubr
          -44 vvcurveto
          -206 -80 callsubr
          485 -104 callgsubr
          82 -75 callgsubr
          -197 -60 57 -70 callgsubr
          -51 -94 callgsubr
          -188 -91 callgsubr
          200 144 callgsubr
          328 -104 callgsubr
          81 vlineto
          53 -23 24 -53 vhcurveto
          -197 -60 57 362 callgsubr
          -25 hvcurveto
          -50 47 callgsubr
          -188 -10 callgsubr
          201 144 callgsubr
          endchar
        </CharString>
        <CharString name="dvDD_GA">
          39 274 121 rmoveto
          -167 -43 rlineto
          -9 -2 -60 -10 vhcurveto
          -27 3 -15 19 -4 vhcurveto
          -1 -7 -7 -1 -5 hhcurveto
          -34 -31 rlineto
          -19 10 -47 19 vhcurveto
          239 hlineto
          34 14 35 34 hvcurveto
          -70 103 rlineto
          -3 15 -1 16 7 vvcurveto
          340 352 rmoveto
          137 125 59 -791 -59 466 -78 -299 161 callgsubr
          -81 -80 callsubr
          303 hlineto
          -67 callsubr
          -123 18 callsubr
          -61 -59 50 -256 175 256 hlineto
          48 2 21 23 51 vvcurveto
          155 -75 callgsubr
          -303 -53 callsubr
          49 264 callgsubr
        </CharString>
        <CharString name="dvMatraI.a33">
          -79 callgsubr
          1892 168 callsubr
          -2205 -95 callsubr
        </CharString>
        <CharString name="dvMatraI.a34">
          -79 callgsubr
          1939 -56 callgsubr
          -2253 -95 callsubr
        </CharString>
        <CharString name="dvMatraI.a35">
          -79 callgsubr
          1988 22 callgsubr
          -2301 -95 callsubr
        </CharString>
        <CharString name="dvMatraI.a36">
          -79 callgsubr
          2035 22 callgsubr
          -2348 -95 callsubr
        </CharString>
        <CharString name="dvMatraI.a37">
          -79 callgsubr
          2083 hlineto
          26 6 -7 -25 hvcurveto
          -78 200 117 callsubr
          -2396 -95 callsubr
        </CharString>
        <CharString name="dvMatraI.a38">
          -79 callgsubr
          2130 -56 callgsubr
          -2444 -95 callsubr
        </CharString>
        <CharString name="dvMatraI.a39">
          -79 callgsubr
          2178 -56 callgsubr
          -2492 -95 callsubr
        </CharString>
        <CharString name="dvMatraI.a40">
          -79 callgsubr
          2226 hlineto
          26 6 -7 -25 hvcurveto
          -78 200 117 callsubr
          -2539 -95 callsubr
        </CharString>
        <CharString name="dvMatraI.a41">
          -79 callgsubr
          2273 22 callgsubr
          -2586 -95 callsubr
        </CharString>
        <CharString name="dvMatraI.a42">
          -79 callgsubr
          2321 22 callgsubr
          -2634 -95 callsubr
        </CharString>
        <CharString name="dvMatraI.a43">
          -79 callgsubr
          2368 -56 callgsubr
          -2682 -95 callsubr
        </CharString>
        <CharString name="dvMatraI.a44">
          -79 callgsubr
          2416 -56 callgsubr
          -2730 -95 callsubr
        </CharString>
        <CharString name="dvMatraI.a45">
          -79 callgsubr
          2463 -56 callgsubr
          -2777 -95 callsubr
        </CharString>
        <CharString name="dvMatraI.a46">
          -79 callgsubr
          2511 -56 callgsubr
          -2825 -95 callsubr
        </CharString>
        <CharString name="dvMatraI.a47">
          -79 callgsubr
          2559 168 callsubr
          -2872 -95 callsubr
        </CharString>
        <CharString name="dvMatraI.a48">
          -79 callgsubr
          2607 22 callgsubr
          -2920 -95 callsubr
        </CharString>
        <CharString name="dvMatraI.a49">
          393 0 callgsubr
          -106 126 hlineto
          25 6 -20 callsubr
          2654 -56 callgsubr
          -2967 hlineto
          -98 callgsubr
          -141 -106 -59 106 -563 201 124 callsubr
        </CharString>
        <CharString name="dvMatraI.a50">
          3253 670 rmoveto
          93 2 callgsubr
          -3014 -25 callgsubr
          -141 -62 callgsubr
          59 -106 126 33 callsubr
          2701 hlineto
          26 7 -7 -25 hvcurveto
          -78 vlineto
          endchar
        </CharString>
        <CharString name="dvNG_GA">
          178 726 296 rmoveto
          131 110 -131 hlineto
          -746 216 rmoveto
          -59 468 -78 -299 161 callgsubr
          -84 vlineto
          -53 23 -24 53 vhcurveto
          303 hlineto
          26 7 -6 -26 hvcurveto
          -120 18 callsubr
          -143 -10 callgsubr
          73 -200 -88 -80 callsubr
          1 -113 248 callgsubr
          -43 -59 174 -45 callsubr
          128 113 -256 175 256 vlineto
          47 2 22 24 50 vvcurveto
          151 2 callgsubr
          -302 -53 callsubr
          53 -74 callsubr
          342 137 262 59 hlineto
          endchar
        </CharString>
        <CharString name="dvNG_MA">
          405 792 410 rmoveto
          -114 -110 114 hlineto
          51 -317 rmoveto
          -202 249 hlineto
          53 -23 24 -53 vhcurveto
          -263 222 callgsubr
          51 vlineto
          26 8 -20 callsubr
          330 137 211 hlineto
          294 59 rmoveto
          -1157 -59 457 -78 -292 -25 callgsubr
          -83 -80 callsubr
          267 hlineto
          -67 callsubr
          -105 18 callsubr
          -107 hlineto
          -26 -8 8 25 hvcurveto
          65 -199 -80 vlineto
          -53 23 -24 53 vhcurveto
          308 -181 185 85 202 -147 188 786 106 hlineto
          endchar
        </CharString>
        <CharString name="dvNY_CA">
          834 1566 0 callgsubr
          -1586 -59 1280 -392 hlineto
          -26 -8 -8 -26 vhcurveto
          -193 hlineto
          43 callsubr
          -72 -177 91 vlineto
          23 callgsubr
          177 -105 -102 callsubr
          351 -82 callsubr
        </CharString>
        <CharString name="dvSHA_MatraVocalicR">
          335 263 530 rmoveto
          -51 callgsubr
          103 265 callsubr
          -159 vlineto
          -40 -36 rlineto
          -97 -53 callsubr
          698 -327 rmoveto
          522 106 59 -306 -287 -159 vlineto
          13 6 5 14 23 vvcurveto
          168 vlineto
          53 -23 23 -53 vhcurveto
          -392 154 callsubr
          175 hlineto
          -216 -190 rlineto
          222 hlineto
          216 190 rlineto
          212 -176 -115 hlineto
          201 callgsubr
          350 59 -185 hlineto
          149 callgsubr
          endchar
        </CharString>
        <CharString name="dvSH_VA.aSimp">
          772 161 622 rmoveto
          -100 callgsubr
          918 hmoveto
          -766 -59 460 -392 hlineto
          -66 callgsubr
          -53 -23 -23 -53 hvcurveto
          -255 -50 callsubr
        </CharString>
        <CharString name="dvTTH_TTHA">
          84 528 251 348 callgsubr
          -194 -10 callgsubr
          143 33 callsubr
          194 hlineto
          26 7 -7 -25 hvcurveto
          -536 vmoveto
          -16 callgsubr
          -195 171 callgsubr
          140 144 callgsubr
          195 362 callgsubr
          -25 hvcurveto
          288 565 rmoveto
          59 -836 -59 321 -78 -150 vlineto
          -98 callgsubr
          -173 -102 callsubr
          150 -71 -150 hlineto
          -98 callgsubr
          -170 -102 callsubr
          494 -45 callsubr
          170 2 callgsubr
          -149 71 149 -45 callsubr
          173 2 callgsubr
          -149 78 hlineto
          endchar
        </CharString>
        <CharString name="dvTT_GA">
          56 670 298 callgsubr
          -808 -59 490 -78 -315 161 callgsubr
          -329 -80 callsubr
          -113 47 callgsubr
          -43 -59 174 -104 callgsubr
          128 116 -256 174 256 5 113 callgsubr
          174 -200 -159 47 callgsubr
          -155 -10 callgsubr
          299 -106 callgsubr
          endchar
        </CharString>
        <CharString name="dvT_KH_NA">
          1771 1864 12 callsubr
          -2523 -59 832 353 callgsubr
          -530 -66 callsubr
          173 -350 hlineto
          -53 24 249 callgsubr
          1187 305 callgsubr
          -126 259 callsubr
          107 59 -243 327 callsubr
          266 203 callsubr
          23 -14 42 hhcurveto
          427 -74 callgsubr
        </CharString>
        <CharString name="dvT_S_NA">
          1516 1942 485 rmoveto
          339 callgsubr
          -70 -151 vlineto
          -80 callgsubr
          883 hlineto
          5 callgsubr
          -2268 -59 860 72 callsubr
          -541 -66 callsubr
          185 -60 callgsubr
          533 -126 40 callsubr
        </CharString>
        <CharString name="e">
          -54 245 278 rmoveto
          -64 callgsubr
        </CharString>
        <CharString name="eacute">
          -65 581 683 31 callsubr
          -169 -254 rmoveto
          -64 callgsubr
        </CharString>
        <CharString name="ecaron">
          -65 414 532 -15 callsubr
          -254 vmoveto
          -64 callgsubr
        </CharString>
        <CharString name="ecircumflex">
          -65 330 153 callsubr
          -1 -254 rmoveto
          -64 callgsubr
        </CharString>
        <CharString name="edieresis">
          -65 280 652 rmoveto
          -196 -120 196 hlineto
          298 120 204 callsubr
          -443 -47 4 callgsubr
          384 42 callgsubr
          -118 138 callsubr
          359 150 callgsubr
          -280 -207 rmoveto
          109 callsubr
          endchar
        </CharString>
        <CharString name="edotaccent">
          -65 427 655 300 callgsubr
          -187 -254 rmoveto
          -64 callgsubr
        </CharString>
        <CharString name="egrave">
          -65 410 532 156 callgsubr
          -19 -254 rmoveto
          -64 callgsubr
        </CharString>
        <CharString name="eight">
          -24 144 0 callgsubr
          14 callsubr
          -160 vlineto
          -44 20 -23 40 -2 vhcurveto
          -40 -3 -20 -22 -44 vvcurveto
          -166 -71 callgsubr
          401 -41 callgsubr
          166 vlineto
          44 353 callsubr
          160 -46 callsubr
          -287 -370 319 callgsubr
          111 -60 callsubr
          -162 -17 callsubr
          -111 -63 callgsubr
          173 283 38 callgsubr
          -111 -63 callgsubr
          159 -32 callgsubr
          111 346 callgsubr
        </CharString>
        <CharString name="ellipsis">
          218 57 hmoveto
          359 callgsubr
          317 -135 rmoveto
          359 callgsubr
          310 -135 rmoveto
          359 callgsubr
          endchar
        </CharString>
        <CharString name="emacron">
          -65 565 596 273 callsubr
          -325 -260 rmoveto
          -64 callgsubr
        </CharString>
        <CharString name="emdash">
          285 63 262 rmoveto
          864 59 -864 hlineto
          endchar
        </CharString>
        <CharString name="endash">
          42 63 262 rmoveto
          533 59 -533 hlineto
          endchar
        </CharString>
        <CharString name="eogonek">
          -65 240 278 rmoveto
          109 callsubr
          -286 207 4 callgsubr
          106 187 callsubr
          95 42 callgsubr
          -118 138 callsubr
          359 150 callgsubr
          endchar
        </CharString>
        <CharString name="equal">
          19 61 355 rmoveto
          609 115 -609 hlineto
          -320 vmoveto
          609 115 -609 hlineto
          endchar
        </CharString>
        <CharString name="eth">
          -130 438 214 callsubr
          -128 -63 callgsubr
          195 -32 callgsubr
          159 -8 hlineto
          166 219 rmoveto
          62 vlineto
          -115 -26 -31 26 -29 20 -22 13 rlinecurve
          -252 hlineto
          37 -19 65 -33 57 -47 -108 -25 rcurveline
          -62 vlineto
          161 37 26 -29 22 -33 12 -36 rlinecurve
          -284 46 callsubr
          -217 -71 callgsubr
          400 -41 callgsubr
          226 vlineto
          85 -37 69 -46 53 vhcurveto
          endchar
        </CharString>
        <CharString name="exclam">
          -360 69 0 callgsubr
          33 -413 rlineto
          149 hlineto
          32 413 rlineto
          -206 -622 rmoveto
          198 137 -198 hlineto
          endchar
        </CharString>
        <CharString name="exclamdown">
          -351 106 275 rmoveto
          -33 -413 rlineto
          214 hlineto
          -32 413 rlineto
          -174 209 rmoveto
          -137 198 137 vlineto
          endchar
        </CharString>
        <CharString name="f">
          -299 406 609 rmoveto
          60 -227 vlineto
          14 callsubr
          -105 -72 -59 72 -426 184 426 122 59 -122 93 -32 callgsubr
          endchar
        </CharString>
        <CharString name="fi">
          -23 622 485 rmoveto
          -334 93 hlineto
          -29 callsubr
          69 60 -205 275 callsubr
          vlineto
          -187 669 rmoveto
          -106 190 106 vlineto
          endchar
        </CharString>
        <CharString name="five">
          -40 273 379 rmoveto
          184 340 59 -540 -302 328 vlineto
          -37 callsubr
          -199 -17 callsubr
          -112 -63 callgsubr
          120 -193 -131 -71 callgsubr
          402 -41 callgsubr
          221 84 callgsubr
        </CharString>
        <CharString name="fl">
          -19 438 669 rmoveto
          -184 -150 93 -32 callgsubr
          73 60 -209 275 callsubr
          669 vlineto
          endchar
        </CharString>
        <CharString name="florin">
          -155 524 594 rmoveto
          61 -129 vlineto
          -119 -34 -41 -66 -12 hvcurveto
          -12 -63 rlineto
          -103 -59 93 hlineto
          -85 -464 rlineto
          -33 -7 -12 -10 -32 hhcurveto
          -54 -60 129 hlineto
          119 33 41 65 13 hvcurveto
          85 461 rlineto
          112 59 -101 hlineto
          12 67 rlineto
          33 6 12 9 32 hhcurveto
          endchar
        </CharString>
        <CharString name="four">
          -10 688 160 rmoveto
          -98 168 -182 -168 -190 hlineto
          280 462 rlineto
          -198 hlineto
          -273 -436 rlineto
          -85 381 -101 182 101 98 vlineto
          endchar
        </CharString>
        <CharString name="fraction">
          -167 436 0 callgsubr
          -423 -622 rlineto
          144 hlineto
          424 622 rlineto
          endchar
        </CharString>
        <CharString name="g">
          -54 276 59 6 callgsubr
        </CharString>
        <CharString name="gbreve">
          -58 499 532 67 callsubr
          110 -473 6 callgsubr
        </CharString>
        <CharString name="germandbls">
          190 350 160 rmoveto
          -81 -71 callgsubr
          361 -41 callgsubr
          133 -46 callsubr
          -226 -63 callgsubr
          47 -32 callgsubr
          170 hlineto
          50 26 25 49 hvcurveto
          69 -46 callsubr
          -575 46 callsubr
          -543 188 531 -32 callgsubr
          286 -60 callsubr
          -43 vlineto
          -25 -5 -4 -28 vhcurveto
          -149 hlineto
          -51 -27 -26 -53 hvcurveto
          -69 -71 callgsubr
          223 -60 callsubr
          -111 -17 callsubr
          -91 -63 callgsubr
          70 vlineto
          endchar
        </CharString>
        <CharString name="grave">
          -107 346 657 162 callsubr
        </CharString>
        <CharString name="greater">
          0 525 312 rmoveto
          -484 -81 rlineto
          -123 vlineto
          637 145 rlineto
          121 vlineto
          -637 138 rlineto
          -122 vlineto
          endchar
        </CharString>
        <CharString name="greaterequal">
          22 54 102 rmoveto
          636 95 -636 hlineto
          502 169 rmoveto
          -502 -47 rlineto
          -106 vlineto
          636 92 rlineto
          123 vlineto
          -636 88 rlineto
          -105 vlineto
          endchar
        </CharString>
        <CharString name="guillemotleft">
          -18 581 398 rmoveto
          -333 hlineto
          -138 -150 138 -151 rlineto
          333 hlineto
          -136 151 rlineto
          endchar
        </CharString>
        <CharString name="guillemotright">
          -30 436 398 rmoveto
          -333 hlineto
          136 -150 -136 -151 rlineto
          333 hlineto
          138 151 rlineto
          endchar
        </CharString>
        <CharString name="guilsinglleft">
          -328 172 97 rmoveto
          193 hlineto
          -136 151 136 150 rlineto
          -193 hlineto
          -137 -150 rlineto
          endchar
        </CharString>
        <CharString name="guilsinglright">
          -330 358 248 rmoveto
          -138 150 rlineto
          -192 hlineto
          136 -150 -136 -151 rlineto
          192 hlineto
          endchar
        </CharString>
        <CharString name="h">
          -50 309 485 291 callgsubr
          213 -184 -669 184 395 vlineto
          23 11 8 25 vhcurveto
          99 -60 callsubr
          -395 183 179 callgsubr
        </CharString>
        <CharString name="hungarumlaut">
          -45 456 664 rmoveto
          -148 264 callsubr
          182 158 rlineto
          -414 hmoveto
          -141 -158 rlineto
          133 hlineto
          176 158 rlineto
          endchar
        </CharString>
        <CharString name="hyphen">
          -280 57 242 rmoveto
          318 59 -318 hlineto
          endchar
        </CharString>
        <CharString name="i">
          -385 255 hmoveto
          485 -184 -485 vlineto
          -3 558 368 callsubr
        </CharString>
        <CharString name="iacute">
          281 callgsubr
          22 532 83 callsubr
          endchar
        </CharString>
        <CharString name="icircumflex">
          342 callgsubr
          -173 532 rmoveto
          178 hlineto
          89 90 46 callgsubr
          endchar
        </CharString>
        <CharString name="idieresis">
          342 callgsubr
          143 653 rmoveto
          213 callgsubr
          -495 hmoveto
          213 callgsubr
          endchar
        </CharString>
        <CharString name="igrave">
          281 callgsubr
          23 683 162 callsubr
        </CharString>
        <CharString name="imacron">
          281 callgsubr
          -143 538 292 callsubr
          endchar
        </CharString>
        <CharString name="infinity">
          258 306 177 rmoveto
          85 27 10 62 48 hvcurveto
          16 20 24 -26 rlineto
          -54 48 27 -12 81 hhcurveto
          179 hlineto
          54 25 26 51 hvcurveto
          173 vlineto
          51 -25 27 -54 vhcurveto
          -196 hlineto
          -77 -18 -17 -57 -46 hvcurveto
          -24 -31 -36 41 rlineto
          42 -37 -21 22 -69 hhcurveto
          -188 hlineto
          -54 -25 -27 -51 hvcurveto
          -173 vlineto
          -51 25 -26 54 vhcurveto
          456 223 rmoveto
          23 18 13 12 28 hhcurveto
          101 hlineto
          34 4 -10 -23 hvcurveto
          -122 vlineto
          -25 -4 -8 -34 vhcurveto
          -94 hlineto
          -28 -17 15 17 -16 hvcurveto
          -55 58 rlineto
          -148 -53 rmoveto
          -23 -19 -21 -14 -33 hhcurveto
          -89 hlineto
          -34 -4 8 25 hvcurveto
          122 vlineto
          23 4 9 34 vhcurveto
          84 hlineto
          29 14 -15 -20 17 hvcurveto
          57 -65 rlineto
          endchar
        </CharString>
        <CharString name="integral">
          -221 338 599 319 callgsubr
          79 61 -223 46 callsubr
          -653 vlineto
          -26 -1 -4 -5 -26 hhcurveto
          -78 -61 222 -41 callgsubr
          endchar
        </CharString>
        <CharString name="iogonek">
          -384 260 669 rmoveto
          -191 -111 191 hlineto
          -142 -753 279 callgsubr
          -518 -38 hlineto
          78 callgsubr
        </CharString>
        <CharString name="itfLogo">
          902 1299 220 rmoveto
          360 callsubr
          38 vmoveto
          360 callsubr
          -232 306 callsubr
          -232 -182 rmoveto
          193 182 -193 hlineto
          -231 306 callsubr
          -232 -182 rmoveto
          360 callsubr
          -231 306 callsubr
          endchar
        </CharString>
        <CharString name="itfStar">
          -42 660 441 rmoveto
          -258 -8 -66 243 -69 -243 -257 8 218 -139 -94 -242 202 165 201 -165 -92 242 rlineto
          endchar
        </CharString>
        <CharString name="j">
          -389 71 -51 38 callgsubr
          -71 -59 208 -41 callgsubr
          547 -185 vlineto
          -3 73 368 callsubr
        </CharString>
        <CharString name="k">
          -58 68 hmoveto
          184 669 -184 hlineto
          568 -184 269 callgsubr
        </CharString>
        <CharString name="l">
          -379 258 hmoveto
          356 callsubr
          endchar
        </CharString>
        <CharString name="lacute">
          -384 95 716 83 callsubr
          22 -867 rmoveto
          356 callsubr
          endchar
        </CharString>
        <CharString name="lcaron">
          -339 72 669 rmoveto
          -669 184 669 vlineto
          70 hmoveto
          -193 48 vlineto
          92 130 rlineto
          63 vlineto
          endchar
        </CharString>
        <CharString name="less">
          0 671 390 rmoveto
          122 vlineto
          -637 -138 rlineto
          -121 vlineto
          637 -145 rlineto
          123 vlineto
          -485 81 rlineto
          endchar
        </CharString>
        <CharString name="lessequal">
          22 680 197 rmoveto
          -636 -95 636 hlineto
          309 vmoveto
          105 vlineto
          -636 -88 rlineto
          -123 vlineto
          636 -92 rlineto
          106 vlineto
          -502 47 rlineto
          endchar
        </CharString>
        <CharString name="logicalnot">
          67 704 401 rmoveto
          -638 -136 530 -141 108 hlineto
          endchar
        </CharString>
        <CharString name="lozenge">
          74 741 313 rmoveto
          -261 309 rlineto
          -183 hlineto
          -252 -309 252 -313 rlineto
          183 hlineto
          69 313 rmoveto
          -161 -206 -150 206 150 202 rlineto
          endchar
        </CharString>
        <CharString name="lslash">
          -375 397 455 rmoveto
          -137 -46 rlineto
          260 -183 -321 vlineto
          -130 -43 rlineto
          -67 vlineto
          130 43 rlineto
          -281 183 342 vlineto
          137 45 rlineto
          endchar
        </CharString>
        <CharString name="m">
          287 658 485 rmoveto
          -38 -20 -16 -29 -8 hvcurveto
          30 -9 -25 15 -40 hhcurveto
          -210 hlineto
          -31 -17 -10 -18 -8 hvcurveto
          28 222 callsubr
          395 vlineto
          23 11 8 25 vhcurveto
          95 -60 callsubr
          -395 183 388 vlineto
          23 10 15 28 vhcurveto
          88 -60 callsubr
          -395 184 179 callgsubr
        </CharString>
        <CharString name="macron">
          -45 96 550 292 callsubr
          endchar
        </CharString>
        <CharString name="minus">
          118 355 callsubr
          endchar
        </CharString>
        <CharString name="multiply">
          -40 619 436 rmoveto
          -81 85 -189 -137 -189 137 -80 -86 170 -123 -168 -122 79 -85 188 136 188 -136 80 84 -169 123 rlineto
          endchar
        </CharString>
        <CharString name="n">
          -50 309 485 19 callgsubr
        </CharString>
        <CharString name="nacute">
          -50 600 683 31 callsubr
          -118 -47 19 callgsubr
        </CharString>
        <CharString name="ncaron">
          -50 421 532 -15 callsubr
          63 -47 19 callgsubr
        </CharString>
        <CharString name="nine">
          -23 287 318 191 callsubr
          183 -32 callgsubr
          109 -60 callsubr
          -214 vlineto
          -285 304 rmoveto
          14 callsubr
          -205 -71 callgsubr
          285 -169 hlineto
          -33 callgsubr
          -100 -63 callgsubr
          98 -193 -109 -71 callgsubr
          391 hlineto
          148 callsubr
        </CharString>
        <CharString name="notequal">
          13 667 355 rmoveto
          113 -131 vlineto
          49 61 rlineto
          -98 hlineto
          -49 -61 rlineto
          -380 -113 290 hlineto
          -69 -87 rlineto
          -221 -114 130 hlineto
          -50 -63 rlineto
          98 hlineto
          50 63 rlineto
          381 114 -290 hlineto
          69 87 rlineto
          endchar
        </CharString>
        <CharString name="ntilde">
          -50 230 587 rmoveto
          13 5 8 14 vhcurveto
          -9 callgsubr
          vlineto
          80 -46 19 callgsubr
        </CharString>
        <CharString name="numbersign">
          239 549 237 rmoveto
          -189 hlineto
          48 147 285 callgsubr
          306 hmoveto
          91 -117 vlineto
          48 147 rlineto
          -159 hlineto
          -48 -147 rlineto
          -189 hlineto
          48 147 rlineto
          -157 hlineto
          -48 -147 rlineto
          -175 -91 145 hlineto
          -49 -147 rlineto
          -155 -90 125 hlineto
          -48 -147 rlineto
          158 hlineto
          48 147 285 callgsubr
          -48 -147 rlineto
          158 hlineto
          48 147 rlineto
          168 90 -138 hlineto
          49 147 rlineto
          endchar
        </CharString>
        <CharString name="o">
          -54 414 90 -36 callgsubr
        </CharString>
        <CharString name="oacute">
          -55 587 682 31 callsubr
          -2 -441 -36 callgsubr
        </CharString>
        <CharString name="ocircumflex">
          -55 330 623 164 callsubr
          172 -443 -36 callgsubr
        </CharString>
        <CharString name="odieresis">
          106 callsubr
          -328 257 rmoveto
          -120 196 120 vlineto
          101 hmoveto
          213 callgsubr
          endchar
        </CharString>
        <CharString name="oe">
          283 592 354 callsubr
          112 -60 callsubr
          -117 vlineto
          -357 -188 rmoveto
          -25 -8 -6 -24 vhcurveto
          -101 hlineto
          17 callsubr
          101 hlineto
          24 8 -6 -25 hvcurveto
          182 90 rmoveto
          -75 -14 -13 -24 -7 hvcurveto
          24 -8 -23 13 -75 hhcurveto
          -249 -17 callgsubr
          248 hlineto
          75 23 13 24 8 hvcurveto
          -24 7 14 -13 74 hhcurveto
          275 42 callgsubr
          -111 138 callsubr
          352 150 callgsubr
          endchar
        </CharString>
        <CharString name="ogonek">
          -45 334 -195 94 callsubr
          104 -183 -47 -38 hlineto
          78 callgsubr
        </CharString>
        <CharString name="ograve">
          -55 408 531 156 callgsubr
          156 -441 -36 callgsubr
        </CharString>
        <CharString name="ohungarumlaut">
          106 callsubr
          -122 295 rmoveto
          -141 264 callsubr
          176 158 rlineto
          78 hmoveto
          -148 264 callsubr
          182 158 rlineto
          endchar
        </CharString>
        <CharString name="omacron">
          -55 564 596 273 callsubr
          -151 -448 -36 callgsubr
        </CharString>
        <CharString name="one">
          -301 344 0 callgsubr
          -327 -59 127 -563 200 hlineto
          endchar
        </CharString>
        <CharString name="onesuperior">
          -429 226 0 callgsubr
          -209 -42 79 -300 130 hlineto
          endchar
        </CharString>
        <CharString name="ordfeminine">
          -255 196 322 rmoveto
          -19 -3 4 18 hvcurveto
          215 vlineto
          18 3 3 19 vhcurveto
          58 hlineto
          19 8 -6 -16 hvcurveto
          -214 vlineto
          -16 -8 -6 -19 vhcurveto
          27 300 rmoveto
          -21 vlineto
          14 -6 -11 7 -23 hhcurveto
          -141 hlineto
          -38 -18 -18 -38 hvcurveto
          -231 vlineto
          -37 18 -18 38 vhcurveto
          141 hlineto
          23 11 7 14 6 hvcurveto
          -21 130 342 vlineto
          endchar
        </CharString>
        <CharString name="ordmasculine">
          -259 395 575 rmoveto
          32 -16 15 -31 vhcurveto
          -253 hlineto
          -32 -15 -15 -32 hvcurveto
          -248 vlineto
          -32 15 -15 32 vhcurveto
          253 hlineto
          31 16 15 32 hvcurveto
          -124 14 rmoveto
          -16 -2 -3 -16 vhcurveto
          -63 hlineto
          -16 -3 3 16 hvcurveto
          221 vlineto
          15 3 3 16 vhcurveto
          63 hlineto
          16 2 -3 -15 hvcurveto
          endchar
        </CharString>
        <CharString name="oslash">
          -48 424 89 rmoveto
          -27 -6 callgsubr
          -121 hlineto
          -27 -5 5 27 hvcurveto
          0 vlineto
          184 203 rlineto
          -184 105 rmoveto
          26 5 5 27 vhcurveto
          121 -60 callsubr
          -7 vlineto
          -184 -202 rlineto
          389 329 rmoveto
          -89 hlineto
          -29 -32 rlineto
          -368 46 callsubr
          -327 vlineto
          -28 7 -20 14 -13 vhcurveto
          -46 -51 rlineto
          90 hlineto
          30 33 rlineto
          362 -41 callgsubr
          327 vlineto
          26 -6 19 -13 13 vhcurveto
          endchar
        </CharString>
        <CharString name="otilde">
          -55 226 588 rmoveto
          13 5 8 14 vhcurveto
          -9 callgsubr
          vlineto
          187 -442 -36 callgsubr
        </CharString>
        <CharString name="p">
          -46 421 214 callsubr
          -102 332 callgsubr
          102 -60 callsubr
          -113 90 rmoveto
          -37 -16 -13 -26 -7 hvcurveto
          39 -180 -625 184 169 vlineto
          -18 8 17 -10 31 hhcurveto
          218 -41 callgsubr
          326 84 callgsubr
        </CharString>
        <CharString name="paragraph">
          65 450 0 callgsubr
          -318 46 callsubr
          -252 -71 callgsubr
          154 -353 164 hlineto
          96 763 rmoveto
          -763 164 763 vlineto
          endchar
        </CharString>
        <CharString name="parenleft">
          -339 68 113 rmoveto
          -224 123 -109 198 vhcurveto
          41 59 -19 hlineto
          -107 3 -43 89 149 vvcurveto
          338 vlineto
          149 43 90 107 2 vhcurveto
          19 59 -41 hlineto
          -198 -123 -108 -224 hvcurveto
          endchar
        </CharString>
        <CharString name="parenright">
          -339 305 386 rmoveto
          224 -123 108 -199 vhcurveto
          -40 -59 19 hlineto
          106 -2 44 -90 -149 vvcurveto
          -338 vlineto
          -149 -44 -89 -106 -3 vhcurveto
          -19 -59 40 hlineto
          199 123 109 224 hvcurveto
          endchar
        </CharString>
        <CharString name="percent">
          483 1154 302 364 callsubr
          -17 293 callgsubr
          17 168 callgsubr
          -253 335 rmoveto
          -468 -622 rlineto
          142 hlineto
          470 622 rlineto
          -447 -56 rmoveto
          37 -17 19 -37 vhcurveto
          -307 259 callgsubr
          307 hlineto
          37 17 18 38 hvcurveto
          -141 129 callsubr
          endchar
        </CharString>
        <CharString name="period">
          -401 57 hmoveto
          318 callsubr
          endchar
        </CharString>
        <CharString name="periodcentered">
          -386 69 244 rmoveto
          318 callsubr
          endchar
        </CharString>
        <CharString name="perthousand">
          983 1157 302 rmoveto
          37 -18 19 -37 vhcurveto
          -307 259 callgsubr
          307 hlineto
          37 18 18 38 hvcurveto
          -142 129 callsubr
          -253 335 rmoveto
          -468 -622 rlineto
          141 hlineto
          470 622 rlineto
          -446 -56 364 callsubr
          -18 -19 -37 hvcurveto
          -245 vlineto
          -38 18 168 callgsubr
          1330 -249 rmoveto
          37 -18 19 -36 vhcurveto
          -308 259 callgsubr
          308 hlineto
          36 18 18 38 hvcurveto
          -142 129 callsubr
          endchar
        </CharString>
        <CharString name="pi">
          120 797 485 rmoveto
          -756 -59 101 -334 hlineto
          -33 callgsubr
          -61 -61 197 -41 callgsubr
          347 183 -426 183 426 105 vlineto
          endchar
        </CharString>
        <CharString name="plus">
          5 663 367 rmoveto
          -216 147 -177 -147 -216 -114 216 -147 177 147 216 hlineto
          endchar
        </CharString>
        <CharString name="plusminus">
          14 51 129 rmoveto
          609 87 -609 hlineto
          387 215 rmoveto
          83 -164 -83 -223 -101 223 -74 164 74 222 101 vlineto
          endchar
        </CharString>
        <CharString name="product">
          46 684 0 callgsubr
          -567 -530 hlineto
          -33 callgsubr
          -69 -61 205 -41 callgsubr
          484 199 -563 183 563 1 vlineto
          endchar
        </CharString>
        <CharString name="q">
          -49 289 59 191 callsubr
          304 -32 callgsubr
          101 hlineto
          26 11 -8 -23 hvcurveto
          -304 vlineto
          -22 -11 -9 -26 vhcurveto
          40 425 rmoveto
          -38 vlineto
          25 -7 -16 13 -37 hhcurveto
          -217 46 callsubr
          -326 -71 callgsubr
          217 hlineto
          32 17 10 20 8 hvcurveto
          -171 184 625 vlineto
          endchar
        </CharString>
        <CharString name="question">
          -93 195 hmoveto
          318 callsubr
          -92 485 rmoveto
          -54 -25 -27 -51 hvcurveto
          -117 186 105 vlineto
          25 5 6 26 vhcurveto
          127 hlineto
          26 4 -6 -25 hvcurveto
          -157 vlineto
          -25 -4 27 callgsubr
          -165 hlineto
          15 -134 rlineto
          155 hlineto
          9 69 rlineto
          124 hlineto
          54 25 28 50 hvcurveto
          188 vlineto
          51 -25 27 -54 vhcurveto
          endchar
        </CharString>
        <CharString name="questiondown">
          -68 451 484 rmoveto
          -198 -137 198 hlineto
          -16 -290 rmoveto
          -105 vlineto
          -25 -4 -6 -26 vhcurveto
          -128 hlineto
          -25 -5 6 25 hvcurveto
          157 vlineto
          25 5 7 25 vhcurveto
          166 hlineto
          -15 134 rlineto
          -156 hlineto
          -8 -69 rlineto
          -124 hlineto
          -54 -25 -28 -50 hvcurveto
          -188 vlineto
          -51 25 -27 54 vhcurveto
          403 hlineto
          54 25 27 51 hvcurveto
          117 vlineto
          endchar
        </CharString>
        <CharString name="quotedbl">
          -208 54 0 callgsubr
          -250 165 250 vlineto
          66 hmoveto
          -250 165 250 vlineto
          endchar
        </CharString>
        <CharString name="quotedblbase">
          -166 308 -126 rmoveto
          65 322 callsubr
          70 -197 vlineto
          -251 -276 rmoveto
          66 322 callsubr
          70 -198 vlineto
          endchar
        </CharString>
        <CharString name="quotedblleft">
          -166 311 callgsubr
          251 276 rmoveto
          -65 hlineto
          -133 -206 rlineto
          -70 198 vlineto
          endchar
        </CharString>
        <CharString name="quotedblright">
          -166 308 346 rmoveto
          65 hlineto
          132 205 rlineto
          71 -197 vlineto
          -251 -276 332 callsubr
        </CharString>
        <CharString name="quoteleft">
          -408 311 callgsubr
          endchar
        </CharString>
        <CharString name="quoteright">
          -408 57 346 332 callsubr
        </CharString>
        <CharString name="quotesinglbase">
          -410 57 -126 rmoveto
          66 322 callsubr
          70 -198 vlineto
          endchar
        </CharString>
        <CharString name="quotesingle">
          -438 54 0 callgsubr
          -250 167 250 vlineto
          endchar
        </CharString>
        <CharString name="r">
          -280 361 487 240 callsubr
        </CharString>
        <CharString name="racute">
          -278 511 683 31 callsubr
          -86 -47 241 callgsubr
        </CharString>
        <CharString name="rcaron">
          -278 336 533 -15 callsubr
          91 -48 241 callgsubr
        </CharString>
        <CharString name="registered">
          -61 602 538 rmoveto
          103 -41 60 -139 vhcurveto
          -192 hlineto
          -140 -41 -60 -103 hvcurveto
          -33 vlineto
          -103 41 -59 140 vhcurveto
          192 hlineto
          139 41 59 103 hvcurveto
          -353 -124 rmoveto
          -78 -28 37 80 hvcurveto
          47 vlineto
          81 28 38 78 vhcurveto
          154 hlineto
          78 28 -38 -81 hvcurveto
          -47 vlineto
          -80 -28 -37 -78 vhcurveto
          -175 236 rmoveto
          -187 71 66 18 vlineto
          39 -66 rlineto
          75 hlineto
          -44 68 rlineto
          9 hlineto
          19 8 11 16 hvcurveto
          65 vlineto
          18 -10 9 -18 vhcurveto
          -44 -85 rmoveto
          -7 -1 -2 -8 vhcurveto
          -43 70 43 hlineto
          8 1 -2 -8 hvcurveto
          endchar
        </CharString>
        <CharString name="ring">
          -45 519 607 122 callsubr
          endchar
        </CharString>
        <CharString name="s">
          -100 378 66 callgsubr
          endchar
        </CharString>
        <CharString name="sacute">
          -104 245 532 83 callsubr
          -6 -593 -48 callgsubr
          endchar
        </CharString>
        <CharString name="scaron">
          -104 221 532 132 callsubr
          336 -597 -48 callgsubr
          endchar
        </CharString>
        <CharString name="section">
          156 668 190 rmoveto
          27 4 31 21 51 vvcurveto
          99 -46 callsubr
          -213 -63 callgsubr
          90 -32 callgsubr
          80 -60 callsubr
          -54 188 65 -46 callsubr
          -361 46 callsubr
          -112 vlineto
          -41 26 -14 18 -5 vhcurveto
          -28 -5 -30 -27 -50 vvcurveto
          -93 -71 callgsubr
          213 -60 callsubr
          -89 -17 callsubr
          -79 272 callsubr
          -189 -65 -71 callgsubr
          360 -41 callgsubr
          104 vlineto
          41 -27 20 -16 6 vhcurveto
          -161 195 rmoveto
          -37 callsubr
          -114 -17 callsubr
          -87 -63 callgsubr
          114 -32 callgsubr
          endchar
        </CharString>
        <CharString name="semicolon">
          -408 57 348 rmoveto
          318 callsubr
          -625 vmoveto
          338 callgsubr
        </CharString>
        <CharString name="seven">
          -144 554 0 callgsubr
          -530 -59 341 hlineto
          -281 -563 rlineto
          205 hlineto
          265 545 rlineto
          endchar
        </CharString>
        <CharString name="six">
          -25 433 214 callsubr
          -109 -63 callgsubr
          211 140 vlineto
          -37 callsubr
          -171 90 rmoveto
          172 -32 callgsubr
          99 -60 callsubr
          -102 193 235 callsubr
          -390 46 callsubr
          -464 -71 callgsubr
          400 -41 callgsubr
          202 84 callgsubr
        </CharString>
        <CharString name="slash">
          -226 285 callsubr
        </CharString>
        <CharString name="space">
          -438 endchar
        </CharString>
        <CharString name="sterling">
          -6 268 101 rmoveto
          36 13 5 45 57 vvcurveto
          54 236 59 -236 203 -32 callgsubr
          98 -60 callsubr
          -111 193 122 -46 callsubr
          -388 46 callsubr
          -214 -73 -59 73 -62 vlineto
          -66 -11 -52 -58 -10 vhcurveto
          -80 623 101 vlineto
          endchar
        </CharString>
        <CharString name="t">
          -305 380 426 193 callgsubr
        </CharString>
        <CharString name="tcaron">
          -307 281 596 rmoveto
          -184 -111 -78 -59 78 -347 hlineto
          -52 callsubr
          204 61 -68 -63 callgsubr
          334 100 59 -100 vlineto
          59 248 rmoveto
          -182 47 vlineto
          92 118 rlineto
          64 vlineto
          endchar
        </CharString>
        <CharString name="thorn">
          -50 417 100 38 callgsubr
          -98 332 callgsubr
          98 -60 callsubr
          -109 90 rmoveto
          -37 -16 -14 -26 -7 hvcurveto
          215 -180 -810 184 179 vlineto
          -18 8 17 -10 31 hhcurveto
          214 -41 callgsubr
          326 84 callgsubr
        </CharString>
        <CharString name="three">
          -24 248 532 319 callgsubr
          124 -60 callsubr
          -156 -17 callsubr
          -124 -60 124 -60 callsubr
          -164 -17 callsubr
          -124 -63 callgsubr
          108 -193 -119 -71 callgsubr
          414 -41 callgsubr
          170 vlineto
          44 -20 22 -40 3 vhcurveto
          40 2 20 23 44 vvcurveto
          156 -46 callsubr
          -414 46 callsubr
          -120 193 vlineto
          endchar
        </CharString>
        <CharString name="threesuperior">
          -309 161 563 rmoveto
          14 3 3 14 vhcurveto
          59 hlineto
          15 2 -3 -14 hvcurveto
          -72 vlineto
          -14 -2 -3 -15 vhcurveto
          -69 -42 69 hlineto
          15 2 -3 -14 hvcurveto
          -76 vlineto
          -14 -2 -3 -15 vhcurveto
          -59 hlineto
          -14 -3 3 14 hvcurveto
          50 -116 -66 vlineto
          -29 14 -14 29 vhcurveto
          239 hlineto
          29 15 14 29 hvcurveto
          94 vlineto
          24 -12 12 -21 2 vhcurveto
          21 1 12 13 24 vvcurveto
          86 vlineto
          29 -15 14 -29 vhcurveto
          -239 hlineto
          -29 -14 -14 -29 hvcurveto
          -67 116 vlineto
          endchar
        </CharString>
        <CharString name="tilde">
          -45 249 594 rmoveto
          -9 callgsubr
          56 vlineto
          13 5 8 14 vhcurveto
          endchar
        </CharString>
        <CharString name="trademark">
          260 25 557 rmoveto
          107 -280 135 280 107 65 -349 hlineto
          756 hmoveto
          -106 -205 -104 205 rlineto
          -143 -345 125 217 hlineto
          77 -156 rlineto
          90 hlineto
          79 155 rlineto
          -216 125 345 vlineto
          endchar
        </CharString>
        <CharString name="two">
          -51 244 532 rmoveto
          137 callgsubr
          -76 vlineto
          -45 -14 -22 -39 -36 vhcurveto
          -324 -294 rlineto
          -59 572 59 -322 vlineto
          255 230 rlineto
          51 46 13 32 88 vvcurveto
          88 -46 callsubr
          -410 46 callsubr
          -134 195 vlineto
          endchar
        </CharString>
        <CharString name="twosuperior">
          -321 152 563 rmoveto
          14 3 3 14 vhcurveto
          55 hlineto
          15 2 -3 -14 hvcurveto
          -31 vlineto
          -25 -7 -21 -21 -18 vhcurveto
          -171 -145 rlineto
          -43 314 43 -168 vlineto
          131 106 rlineto
          27 24 11 28 51 vvcurveto
          47 vlineto
          29 -14 14 -29 vhcurveto
          -235 hlineto
          -29 -14 -14 -29 hvcurveto
          -72 116 vlineto
          endchar
        </CharString>
        <CharString name="u">
          -50 410 485 -10 callsubr
        </CharString>
        <CharString name="uacute">
          -50 574 684 31 callsubr
          7 -48 -10 callsubr
        </CharString>
        <CharString name="ucircumflex">
          -50 327 153 callsubr
          171 -47 -10 callsubr
        </CharString>
        <CharString name="udieresis">
          -35 574 652 186 callsubr
          133 -47 158 callsubr
        </CharString>
        <CharString name="ugrave">
          -50 421 532 156 callgsubr
          139 -47 -10 callsubr
        </CharString>
        <CharString name="uhungarumlaut">
          -50 515 533 rmoveto
          182 158 rlineto
          -168 hlineto
          -148 -158 rlineto
          70 158 rmoveto
          -169 hlineto
          -141 264 callsubr
          135 -48 158 callsubr
        </CharString>
        <CharString name="umacron">
          -50 564 597 273 callsubr
          -155 -54 -10 callsubr
        </CharString>
        <CharString name="underscore">
          -66 6 -59 rmoveto
          634 59 -634 hlineto
          endchar
        </CharString>
        <CharString name="uni00AD">
          -309 55 249 rmoveto
          293 59 -293 hlineto
          endchar
        </CharString>
        <CharString name="uni00B5">
          -42 418 485 rmoveto
          -395 vlineto
          -23 -11 -8 -26 96 callgsubr
          -626 184 141 109 vlineto
          32 17 10 20 8 hvcurveto
          -30 184 485 vlineto
          endchar
        </CharString>
        <CharString name="uni0122">
          -21 258 -264 15 callsubr
          377 465 25 callgsubr
        </CharString>
        <CharString name="uni0123">
          -58 445 749 rmoveto
          -58 hlineto
          -126 -148 rlineto
          -69 184 vlineto
          -169 -473 6 callgsubr
        </CharString>
        <CharString name="uni0136">
          6 72 0 callgsubr
          -622 188 622 vlineto
          230 hmoveto
          278 callgsubr
          -426 -886 133 callgsubr
        </CharString>
        <CharString name="uni0137">
          -66 253 669 rmoveto
          -184 -669 184 hlineto
          -14 -264 15 callsubr
          398 532 269 callgsubr
        </CharString>
        <CharString name="uni013B">
          -144 217 -264 15 callsubr
          48 106 212 callsubr
        </CharString>
        <CharString name="uni013C">
          -384 255 hmoveto
          356 callsubr
          -2 -264 133 callgsubr
        </CharString>
        <CharString name="uni0145">
          28 488 126 callsubr
          -385 -886 133 callgsubr
        </CharString>
        <CharString name="uni0146">
          -50 247 -264 15 callsubr
          63 532 19 callgsubr
        </CharString>
        <CharString name="uni0156">
          -1 266 -264 15 callsubr
          -1 610 rmoveto
          165 -60 callsubr
          -219 -17 callsubr
          -165 hlineto
          265 -59 rmoveto
          45 205 callgsubr
          -46 callsubr
          -503 -622 193 223 72 hlineto
          133 -223 rlineto
          201 hlineto
          endchar
        </CharString>
        <CharString name="uni0157">
          -278 67 -264 15 callsubr
          295 534 240 callsubr
        </CharString>
        <CharString name="uni015E">
          -36 427 90 -54 callgsubr
          -183 -517 133 callgsubr
        </CharString>
        <CharString name="uni015F">
          63 callsubr
          -165 -445 133 callgsubr
        </CharString>
        <CharString name="uni0162">
          -119 201 -264 15 callsubr
          384 669 165 callsubr
        </CharString>
        <CharString name="uni0163">
          -119 201 -264 15 callsubr
          384 669 165 callsubr
        </CharString>
        <CharString name="uni0218">
          -36 427 90 -54 callgsubr
          -185 -517 133 callgsubr
        </CharString>
        <CharString name="uni0219">
          63 callsubr
          -174 -445 133 callgsubr
        </CharString>
        <CharString name="uni021A">
          -119 204 -264 15 callsubr
          381 669 165 callsubr
        </CharString>
        <CharString name="uni021B">
          -307 110 -264 15 callsubr
          271 473 193 callgsubr
        </CharString>
        <CharString name="uni02C9">
          -107 79 550 rmoveto
          446 58 -446 hlineto
          endchar
        </CharString>
        <CharString name="uni0901">
          -712 -372 685 rmoveto
          432 hlineto
          55 18 28 50 hvcurveto
          89 -165 -76 170 callsubr
          -184 -91 callgsubr
          76 -164 -89 vlineto
          -50 18 -28 55 vhcurveto
          162 125 rmoveto
          108 99 -108 hlineto
          endchar
        </CharString>
        <CharString name="uni0902">
          -712 -284 687 315 callgsubr
        </CharString>
        <CharString name="uni0902.aMatraI">
          -712 67 677 rmoveto
          196 129 -196 hlineto
          endchar
        </CharString>
        <CharString name="uni0903">
          -310 138 412 rmoveto
          188 156 -188 hlineto
          -503 vmoveto
          188 156 -188 hlineto
          endchar
        </CharString>
        <CharString name="uni0905">
          367 1099 0 callgsubr
          -306 -39 callsubr
          106 vlineto
          endchar
        </CharString>
        <CharString name="uni0906">
          732 1464 0 callgsubr
          -671 -39 callsubr
          165 116 callsubr
        </CharString>
        <CharString name="uni0907">
          23 655 102 callgsubr
          100 59 -775 93 callsubr
        </CharString>
        <CharString name="uni0908">
          24 656 102 callgsubr
          100 59 -120 126 33 callsubr
          75 59 -232 -25 callgsubr
          -141 -455 93 callsubr
        </CharString>
        <CharString name="uni09080902">
          24 623 760 rmoveto
          24 8 9 26 vhcurveto
          94 59 -254 349 callgsubr
          -155 -441 -59 474 -78 -312 161 callgsubr
          -68 -80 callsubr
          296 hlineto
          -67 callsubr
          -62 18 callsubr
          -159 53 -209 -190 209 78 316 -104 callgsubr
          94 -75 callgsubr
          -296 -53 callsubr
          36 -74 callsubr
          355 137 101 59 -133 hlineto
          58 133 rmoveto
          -94 95 94 vlineto
          endchar
        </CharString>
        <CharString name="uni0909">
          5 737 0 callgsubr
          -757 -59 418 hlineto
          -67 callsubr
          -128 18 callsubr
          -132 -59 132 hlineto
          -67 callsubr
          -186 -94 callgsubr
          -120 -91 callgsubr
          115 -200 -130 -102 callsubr
          432 -45 callsubr
          196 vlineto
          45 -20 19 -43 1 vhcurveto
          4 vlineto
          43 1 20 19 45 vvcurveto
          121 213 callsubr
          121 hlineto
          endchar
        </CharString>
        <CharString name="uni090A">
          351 1083 0 callgsubr
          -1103 -59 424 115 callsubr
          5 148 vlineto
          -49 callsubr
          -157 107 callsubr
          257 -45 callsubr
          187 2 callgsubr
          -353 hlineto
          1 -4 -4 0 -5 hhcurveto
          4 vlineto
          43 19 20 45 hvcurveto
          118 vlineto
          19 -4 42 callsubr
          460 hlineto
          endchar
        </CharString>
        <CharString name="uni090B">
          66 callsubr
          404 hlineto
          24 8 -6 -26 hvcurveto
          -72 vlineto
          -24 -4 -8 -27 -1 vhcurveto
          -83 hlineto
          -24 -10 4 24 hvcurveto
          47 -197 -58 vlineto
          -50 22 -26 51 vhcurveto
          384 hlineto
          55 22 25 51 hvcurveto
          92 vlineto
          47 -16 11 -30 3 vhcurveto
          4 vlineto
          32 3 14 18 47 vvcurveto
          108 241 callsubr
        </CharString>
        <CharString name="uni090C">
          403 1031 34 rmoveto
          529 104 59 -1155 -59 850 -78 -213 vlineto
          112 callgsubr
          -4 hlineto
          -105 callgsubr
          146 -333 -120 349 callgsubr
          -121 302 callgsubr
          350 59 -201 334 callgsubr
          endchar
        </CharString>
        <CharString name="uni090D">
          60 613 188 callgsubr
          613 -63 rmoveto
          -812 43 callgsubr
        </CharString>
        <CharString name="uni090E">
          60 792 0 callgsubr
          -92 198 callsubr
          -520 -59 106 -487 vlineto
          50 callsubr
        </CharString>
        <CharString name="uni090F">
          60 792 0 callgsubr
          -812 43 callgsubr
        </CharString>
        <CharString name="uni0910">
          60 792 0 callgsubr
          -94 194 callgsubr
          -529 43 callgsubr
        </CharString>
        <CharString name="uni0911">
          728 1294 188 callgsubr
          600 -63 rmoveto
          -667 -39 callsubr
          161 116 callsubr
        </CharString>
        <CharString name="uni0912">
          728 1460 0 callgsubr
          -106 198 callsubr
          -361 -264 -210 4 vlineto
          -59 callsubr
          161 116 callsubr
        </CharString>
        <CharString name="uni0913">
          729 1461 0 callgsubr
          -107 194 callgsubr
          -372 -39 callsubr
          162 116 callsubr
        </CharString>
        <CharString name="uni0914">
          750 1482 0 callgsubr
          -106 hlineto
          -40 217 rlineto
          -135 108 callsubr
          -358 -39 callsubr
          161 116 callsubr
        </CharString>
        <CharString name="uni0915">
          376 1108 369 callsubr
          -1128 -59 464 -392 vlineto
          -100 callsubr
          -97 callsubr
          112 -70 callgsubr
          -225 vlineto
          -24 -7 -8 23 callsubr
          255 -75 callgsubr
          -271 -31 callsubr
        </CharString>
        <CharString name="uni0915093C">
          376 102 -116 -35 callsubr
          1006 550 rmoveto
          59 -1128 -59 464 -392 vlineto
          -100 callsubr
          -97 callsubr
          112 -70 callgsubr
          -225 vlineto
          -24 -7 -8 23 callsubr
          255 -75 callgsubr
          -271 -31 callsubr
        </CharString>
        <CharString name="uni0915093C094D">
          29 84 -116 -35 callsubr
          592 472 183 callgsubr
          153 59 -817 -59 464 -392 vlineto
          -100 callsubr
          -97 callsubr
          241 59 hlineto
          endchar
        </CharString>
        <CharString name="uni0915093C094D0915093C">
          1121 84 -116 -35 callsubr
          763 -129 -35 callsubr
          342 158 rmoveto
          -96 callgsubr
          -463 -59 callgsubr
          545 vlineto
          352 callsubr
          -1873 -59 464 -392 vlineto
          -100 callsubr
          -97 callsubr
          133 hlineto
          -40 callsubr
          -97 callsubr
          112 -70 callgsubr
          -225 vlineto
          -24 -7 -8 23 callsubr
          255 -75 callgsubr
          -271 -31 callsubr
        </CharString>
        <CharString name="uni0915093C094D0924">
          800 84 -116 -35 callsubr
          1144 472 rmoveto
          -552 -59 callgsubr
          584 vlineto
          304 59 rmoveto
          -1552 -59 464 -392 hlineto
          -100 callsubr
          -97 callsubr
          125 hlineto
          -40 callsubr
          -333 -39 callgsubr
        </CharString>
        <CharString name="uni0915093C094D092B">
          1137 84 -116 -35 callsubr
          1122 266 callsubr
          -78 183 callgsubr
          172 -78 vlineto
          1054 78 rmoveto
          59 -1890 -59 464 -392 vlineto
          -100 callsubr
          -97 callsubr
          138 -272 hlineto
          -103 callgsubr
          -89 callgsubr
        </CharString>
        <CharString name="uni0915093C094D092B093C">
          1137 84 -132 rmoveto
          195 128 -195 hlineto
          746 -112 -35 callsubr
          376 266 callsubr
          -78 183 callgsubr
          172 -78 vlineto
          1054 78 rmoveto
          59 -1890 -59 464 -392 vlineto
          -100 callsubr
          -97 callsubr
          138 -272 hlineto
          -103 callgsubr
          -89 callgsubr
        </CharString>
        <CharString name="uni0915093C094D092C">
          846 84 -116 -35 callsubr
          933 413 rmoveto
          207 59 -548 -59 callgsubr
          627 -244 vlineto
          310 callgsubr
          -245 -50 85 callsubr
          -1597 -59 464 -392 hlineto
          -100 callsubr
          -97 callsubr
          126 hlineto
          -40 callsubr
          -83 callgsubr
          359 -82 callsubr
        </CharString>
        <CharString name="uni0915093C094D092E">
          1104 84 -116 -35 callsubr
          1448 472 359 callsubr
          -353 -394 rmoveto
          -24 -6 -8 -26 vhcurveto
          -128 -107 callgsubr
          160 hlineto
          59 vmoveto
          -503 -59 callgsubr
          535 vlineto
          657 59 rmoveto
          -1856 -59 464 -392 hlineto
          -100 callsubr
          -97 callsubr
          122 hlineto
          -40 callsubr
          -255 9 callgsubr
        </CharString>
        <CharString name="uni0915093C094D0930">
          378 273 -264 -35 callsubr
          837 698 rmoveto
          59 -1130 -59 466 -379 vlineto
          -26 -8 -8 -26 vhcurveto
          -112 hlineto
          -26 -7 7 25 hvcurveto
          212 vlineto
          24 7 8 26 vhcurveto
          96 59 -253 hlineto
          -53 -23 -23 -53 hvcurveto
          -242 -19 callgsubr
        </CharString>
        <CharString name="uni0915093C094D0930094D">
          29 273 -264 -35 callsubr
          405 620 75 callsubr
        </CharString>
        <CharString name="uni0915094D">
          20 676 485 183 callgsubr
          145 59 -809 -59 464 -392 vlineto
          -100 callsubr
          -97 callsubr
          224 59 hlineto
          endchar
        </CharString>
        <CharString name="uni0915094D0915">
          1116 1184 171 rmoveto
          -96 callgsubr
          -458 -59 callgsubr
          540 vlineto
          352 callsubr
          -1868 -59 464 -392 vlineto
          -100 callsubr
          -97 callsubr
          128 hlineto
          -40 callsubr
          -97 callsubr
          112 -70 callgsubr
          -225 vlineto
          -24 -7 -8 23 callsubr
          255 -75 callgsubr
          -271 -31 callsubr
        </CharString>
        <CharString name="uni0915094D0916">
          1386 1150 314 348 callgsubr
          -101 203 -340 -59 callgsubr
          506 vlineto
          968 59 rmoveto
          -2138 -59 464 -392 hlineto
          -100 callsubr
          -97 callsubr
          138 -350 hlineto
          -79 callsubr
          535 59 -377 hlineto
          -26 -8 -90 callsubr
          132 255 113 callgsubr
          264 467 -349 vlineto
          -27 -9 -8 -27 vhcurveto
          -122 259 callsubr
          113 59 -249 98 callgsubr
          15 11 3 7 7 hvcurveto
          -130 287 callgsubr
        </CharString>
        <CharString name="uni0915094D091A">
          848 1274 171 rmoveto
          159 callgsubr
          -468 -59 callgsubr
          630 293 callsubr
          -1600 -59 464 -392 hlineto
          -100 callsubr
          -97 callsubr
          151 246 callsubr
          -236 -102 callsubr
          351 -93 callsubr
          199 563 107 vlineto
          endchar
        </CharString>
        <CharString name="uni0915094D091C">
          1105 1531 485 rmoveto
          41 callsubr
          -332 300 callsubr
          887 293 callsubr
          -1857 -59 464 -392 hlineto
          -100 callsubr
          -97 callsubr
          136 -272 hlineto
          -21 callgsubr
        </CharString>
        <CharString name="uni0915094D091F">
          750 1163 485 rmoveto
          -487 -59 callgsubr
          519 vlineto
          200 -137 302 callsubr
          -1501 -59 464 -392 vlineto
          -100 callsubr
          -97 callsubr
          126 hlineto
          -40 callsubr
          -333 -58 callsubr
        </CharString>
        <CharString name="uni0915094D0923">
          1105 1186 313 callsubr
          394 194 vlineto
          -510 -78 183 callgsubr
          161 -78 vlineto
          1033 137 rmoveto
          -1858 -59 464 -392 hlineto
          -100 callsubr
          -97 callsubr
          127 -272 hlineto
          242 callsubr
          159 116 callsubr
        </CharString>
        <CharString name="uni0915094D0924">
          444 1176 369 callsubr
          -1196 -59 510 -78 -474 -59 85 vlineto
          350 callgsubr
          -314 -80 callsubr
          256 59 -99 -91 callgsubr
          303 vlineto
          321 callgsubr
          174 294 callgsubr
          392 hlineto
          -27 callgsubr
          134 hlineto
          26 7 247 callsubr
          -7 -8 -26 vhcurveto
          -99 -59 256 154 callgsubr
          -293 -31 callsubr
        </CharString>
        <CharString name="uni0915094D0924094D092F">
          1463 1889 173 rmoveto
          -27 -9 10 callgsubr
          -9 6 vhcurveto
          164 hlineto
          306 59 rmoveto
          -2215 -59 464 -392 hlineto
          -100 callsubr
          -97 callsubr
          132 hlineto
          -40 callsubr
          -333 56 callsubr
          303 vlineto
          24 7 8 26 vhcurveto
          218 59 -584 -59 callgsubr
          862 vlineto
          89 callsubr
        </CharString>
        <CharString name="uni0915094D0924094D0930">
          826 1253 297 rmoveto
          -43 hlineto
          -119 133 rlineto
          47 -45 -39 8 -76 hhcurveto
          -255 -59 callgsubr
          609 vlineto
          305 59 rmoveto
          -1578 -59 464 -392 hlineto
          -100 callsubr
          -97 callsubr
          118 hlineto
          45 32 -5 -38 37 hvcurveto
          119 -126 -247 -257 rlineto
          230 hlineto
          203 218 rlineto
          38 -218 286 callsubr
        </CharString>
        <CharString name="uni0915094D0924094D0935">
          1196 1622 171 rmoveto
          -85 callgsubr
          -896 -59 callgsubr
          978 293 callsubr
          -1948 -59 464 -392 hlineto
          -100 callsubr
          -97 callsubr
          125 hlineto
          -40 callsubr
          -333 56 callsubr
          303 vlineto
          24 7 8 26 vhcurveto
          189 hlineto
          -40 callsubr
          -255 -50 callsubr
        </CharString>
        <CharString name="uni0915094D0925">
          1074 1806 0 callgsubr
          -305 232 callgsubr
          -428 -91 callgsubr
          123 288 31 callgsubr
          -61 -137 300 callsubr
          68 59 -732 -59 464 -392 vlineto
          -100 callsubr
          -97 callsubr
          331 105 hlineto
          -35 callgsubr
          586 -93 callsubr
          209 callgsubr
        </CharString>
        <CharString name="uni0915094D0926">
          750 1173 485 rmoveto
          -497 -59 callgsubr
          529 vlineto
          200 -137 266 callgsubr
          -1502 -59 464 -392 vlineto
          -100 callsubr
          -97 callsubr
          119 hlineto
          -40 callsubr
          -255 -36 callsubr
        </CharString>
        <CharString name="uni0915094D0928">
          1092 1518 485 rmoveto
          -842 -59 callgsubr
          874 vlineto
          5 callgsubr
          -1844 -59 464 -392 hlineto
          -100 callsubr
          -97 callsubr
          122 hlineto
          -40 callsubr
          -255 40 callsubr
        </CharString>
        <CharString name="uni0915094D092A">
          778 1205 -34 callsubr
          -529 -78 183 callgsubr
          171 -78 vlineto
          696 137 rmoveto
          -1531 -59 464 -392 hlineto
          -100 callsubr
          -97 callsubr
          137 -272 116 callgsubr
        </CharString>
        <CharString name="uni0915094D092A094D0930">
          775 1201 36 callgsubr
          -525 -78 183 callgsubr
          168 -78 vlineto
          695 137 rmoveto
          -1527 -59 464 -392 hlineto
          -100 callsubr
          -97 callsubr
          134 -228 120 callgsubr
        </CharString>
        <CharString name="uni0915094D092B">
          1136 1205 -34 callsubr
          -529 -78 183 callgsubr
          171 -78 vlineto
          1054 78 rmoveto
          59 -1889 -59 464 -392 vlineto
          -100 callsubr
          -97 callsubr
          137 -272 hlineto
          -103 callgsubr
          -89 callgsubr
        </CharString>
        <CharString name="uni0915094D092E">
          1108 1536 485 359 callsubr
          -353 -394 rmoveto
          -24 -6 -8 -26 vhcurveto
          -128 -107 callgsubr
          160 hlineto
          59 vmoveto
          -507 -59 callgsubr
          539 vlineto
          657 59 rmoveto
          -1860 -59 464 -392 hlineto
          -100 callsubr
          -97 callsubr
          126 hlineto
          -40 callsubr
          -255 9 callgsubr
        </CharString>
        <CharString name="uni0915094D092F">
          1001 1428 173 -51 callsubr
          -1754 -59 464 -392 hlineto
          -100 callsubr
          -97 callsubr
          120 59 -122 -59 callgsubr
          401 vlineto
          -97 callgsubr
        </CharString>
        <CharString name="uni0915094D0930">
          378 1110 369 callsubr
          -1130 -59 466 -379 vlineto
          -26 -8 -8 -26 vhcurveto
          -112 hlineto
          -26 -7 7 25 hvcurveto
          212 vlineto
          24 7 8 26 vhcurveto
          96 59 -253 hlineto
          -53 -23 -23 -53 hvcurveto
          -242 -19 callgsubr
        </CharString>
        <CharString name="uni0915094D0930.aTrad">
          49 callsubr
        </CharString>
        <CharString name="uni0915094D0930094D">
          29 678 485 75 callsubr
        </CharString>
        <CharString name="uni0915094D0932">
          1134 1559 485 rmoveto
          80 callsubr
          -534 -59 callgsubr
          915 vlineto
          307 59 rmoveto
          -1886 -59 464 -392 hlineto
          -100 callsubr
          -97 callsubr
          124 hlineto
          -40 callsubr
          -15 callgsubr
        </CharString>
        <CharString name="uni0915094D0935">
          774 1200 171 rmoveto
          -85 callgsubr
          -474 -59 callgsubr
          556 293 callsubr
          -1526 -59 464 -392 hlineto
          -100 callsubr
          -97 callsubr
          124 hlineto
          -40 callsubr
          -255 -50 callsubr
        </CharString>
        <CharString name="uni0915094D0935094D092F">
          1419 1845 173 -104 callsubr
          -819 -426 rmoveto
          -107 callsubr
          117 59 -467 -59 callgsubr
          818 170 callgsubr
          166 callsubr
          970 485 rmoveto
          -2171 -59 464 -392 hlineto
          -100 callsubr
          -97 callsubr
          116 hlineto
          -40 callsubr
          -83 callgsubr
          315 58 callsubr
          -92 callgsubr
        </CharString>
        <CharString name="uni0915094D0936">
          1120 881 0 callgsubr
          -63 callsubr
          -61 -129 300 callsubr
          65 59 -729 -59 464 -392 vlineto
          -100 callsubr
          -97 callsubr
          326 105 hlineto
          24 8 14 callgsubr
          -176 47 callgsubr
          -147 42 -200 -289 hlineto
          -68 callgsubr
          173 99 callgsubr
          206 -75 callgsubr
          534 hmoveto
          -307 -622 201 135 callgsubr
        </CharString>
        <CharString name="uni0915094D0937">
          388 467 393 39 callsubr
          653 92 rmoveto
          -305 -262 -174 hlineto
          -57 callgsubr
          533 -301 286 callsubr
        </CharString>
        <CharString name="uni0915094D0937094D">
          29 305 530 rmoveto
          -51 callgsubr
          96 hlineto
          -67 callsubr
          -137 18 callsubr
          -95 222 callgsubr
          628 -92 rmoveto
          59 -292 vlineto
          -57 callgsubr
          endchar
        </CharString>
        <CharString name="uni0915094D0937094D092E">
          1108 1535 485 359 callsubr
          -352 69 callsubr
          225 142 callsubr
          -716 -33 39 callsubr
          1373 92 rmoveto
          -1068 -59 411 -78 -304 -25 callgsubr
          -49 -162 vlineto
          -57 callgsubr
          521 -147 hlineto
          -53 23 -23 53 vhcurveto
          27 callsubr
          107 vlineto
          endchar
        </CharString>
        <CharString name="uni0915094D0937094D092E094D">
          745 1189 169 rmoveto
          -64 callsubr
          -128 -58 callgsubr
          225 vlineto
          24 6 133 callsubr
          -722 -33 39 callsubr
          1122 -45 rmoveto
          -200 78 144 59 -796 -59 452 -78 -304 -25 callgsubr
          -49 -168 vlineto
          -57 callgsubr
          527 -147 hlineto
          -79 callsubr
          367 callgsubr
          200 vlineto
          endchar
        </CharString>
        <CharString name="uni0915094D0937094D092E094D092F">
          1729 2155 173 -104 callsubr
          -972 69 callsubr
          225 142 callsubr
          -716 -33 39 callsubr
          1994 92 rmoveto
          -1688 -59 410 -78 -304 -25 callgsubr
          -49 -162 vlineto
          -57 callgsubr
          521 -147 hlineto
          -53 23 65 callgsubr
          272 143 59 -143 78 389 vlineto
          -97 callgsubr
        </CharString>
        <CharString name="uni0915094D0937094D092F">
          996 1422 234 callgsubr
          -360 -91 callgsubr
          136 203 vlineto
          53 23 24 53 hvcurveto
          145 263 callgsubr
          -955 -166 rmoveto
          -26 -7 -7 -26 vhcurveto
          -95 222 callgsubr
          133 96 callsubr
          hlineto
          -67 callsubr
          1261 92 rmoveto
          -966 -59 299 callsubr
          -133 vlineto
          -16 callgsubr
          -400 hlineto
          13 6 6 14 24 vvcurveto
          138 74 callsubr
          -138 vlineto
          -24 6 -14 13 -6 vhcurveto
          -8 hlineto
          -54 -21 -26 -51 hvcurveto
          -133 -102 callsubr
          304 140 callgsubr
          226 -200 -53 vlineto
          -27 -9 -9 -27 vhcurveto
          -145 -53 callsubr
          103 -74 callsubr
          511 -152 262 callgsubr
        </CharString>
        <CharString name="uni0915094D0937094D0935">
          779 467 393 39 callsubr
          1044 92 rmoveto
          -742 -59 437 -392 hlineto
          208 callsubr
          -49 -165 vlineto
          -57 callgsubr
          524 -147 hlineto
          -103 callgsubr
          291 -93 callsubr
          209 callgsubr
        </CharString>
        <CharString name="uni0915094D0938">
          1111 1537 339 rmoveto
          -154 hlineto
          -80 callgsubr
          167 hlineto
          -353 -192 363 callsubr
          -325 -59 callgsubr
          507 367 callsubr
          -1863 -59 464 -392 hlineto
          -100 callsubr
          -97 callsubr
          123 -350 hlineto
          -26 callgsubr
        </CharString>
        <CharString name="uni0915094D0938094D091F">
          1496 1626 316 callsubr
          -157 vlineto
          -80 callgsubr
          530 -78 hlineto
          -716 -114 137 callsubr
          87 1 59 -335 -59 callgsubr
          516 vlineto
          -67 callsubr
          916 -104 302 callsubr
          -2247 -59 464 -392 vlineto
          -100 callsubr
          -97 callsubr
          132 -60 callgsubr
          539 -204 -58 callsubr
        </CharString>
        <CharString name="uni0915094D0938094D0921">
          1478 1620 485 rmoveto
          -63 callsubr
          -70 -151 vlineto
          -80 callgsubr
          521 -78 hlineto
          -707 -114 363 callsubr
          -335 -59 callgsubr
          517 vlineto
          -67 callsubr
          907 -104 266 callgsubr
          -2230 -59 464 -392 vlineto
          -100 callsubr
          -97 callsubr
          133 -60 callgsubr
          543 vlineto
          -19 12 21 -9 33 hhcurveto
          -65 callgsubr
        </CharString>
        <CharString name="uni0915094D0938094D0924">
          1547 1975 485 rmoveto
          -349 253 callgsubr
          596 hlineto
          -782 182 callsubr
          87 1 59 -335 -59 callgsubr
          516 vlineto
          -67 callsubr
          1086 92 rmoveto
          -2299 -59 464 -392 hlineto
          -100 callsubr
          -97 callsubr
          132 -60 callgsubr
          539 -204 -39 callgsubr
        </CharString>
        <CharString name="uni0915094D0938094D092A094D0930">
          1519 1945 36 callgsubr
          -553 -224 rmoveto
          -80 callgsubr
          177 -224 hlineto
          -363 32 137 callsubr
          87 1 59 -335 -59 callgsubr
          516 vlineto
          -67 callsubr
          1058 92 rmoveto
          -2271 -59 464 -392 hlineto
          -100 callsubr
          -97 callsubr
          132 -60 callgsubr
          546 -82 120 callsubr
        </CharString>
        <CharString name="uni0915094D0938094D092A094D0932">
          2254 2680 485 rmoveto
          255 callsubr
          -239 vlineto
          -24 -8 -9 -26 vhcurveto
          -120 -58 callgsubr
          394 944 vlineto
          -1297 -224 rmoveto
          -80 callgsubr
          172 -224 hlineto
          -358 32 363 callsubr
          -325 -59 callgsubr
          507 vlineto
          -67 callsubr
          1802 92 rmoveto
          -3006 -59 464 -392 hlineto
          -100 callsubr
          -97 callsubr
          123 -60 callgsubr
          541 183 callsubr
          273 hlineto
          12 341 callsubr
          317 145 callgsubr
        </CharString>
        <CharString name="uni0916">
          642 1374 622 51 callsubr
        </CharString>
        <CharString name="uni0916093C">
          642 423 -194 -35 callsubr
          951 687 51 callsubr
        </CharString>
        <CharString name="uni0916093C094D">
          287 405 -194 -35 callsubr
          -132 288 rmoveto
          254 hlineto
          89 callgsubr
          434 59 -1058 -59 426 -249 vlineto
          78 callsubr
          -201 -371 hlineto
          226 callgsubr
          639 88 rmoveto
          -9 callsubr
          361 59 hlineto
          endchar
        </CharString>
        <CharString name="uni0916093C094D0924">
          1061 149 callsubr
          1388 704 rmoveto
          -1813 -76 callsubr
          885 -78 -349 vlineto
          -98 callgsubr
          -197 44 callgsubr
          -117 326 callsubr
          106 59 -242 328 callgsubr
          257 hlineto
          12 281 callsubr
          231 59 -75 -55 callsubr
          193 294 callgsubr
          135 callgsubr
        </CharString>
        <CharString name="uni0916093C094D092E">
          1376 149 callsubr
          1398 567 359 callsubr
          -352 69 callsubr
          225 142 callsubr
          657 196 rmoveto
          -2128 -76 callsubr
          847 -78 -304 330 callgsubr
          85 callgsubr
          9 hvcurveto
          -32 8 23 -14 42 hhcurveto
          157 callgsubr
          209 callgsubr
        </CharString>
        <CharString name="uni0916093C094D092F">
          1274 149 callsubr
          1295 255 7 callgsubr
        </CharString>
        <CharString name="uni0916093C094D0930">
          627 863 -264 -35 callsubr
          511 757 rmoveto
          -1394 -59 426 -243 112 callsubr
          -101 159 -201 -371 -3 callsubr
        </CharString>
        <CharString name="uni0916093C094D0930094D">
          125 callsubr
          601 -355 -35 callsubr
          38 321 135 callsubr
        </CharString>
        <CharString name="uni0916093C094D0935">
          1044 149 callsubr
          1371 704 rmoveto
          -1796 -76 callsubr
          866 -392 vlineto
          208 callsubr
          -209 358 callsubr
          85 callgsubr
          8 hvcurveto
          -32 9 276 callgsubr
        </CharString>
        <CharString name="uni0916093C094D0936">
          1376 149 callsubr
          -132 305 rmoveto
          254 hlineto
          89 callgsubr
          360 59 -984 -3 callgsubr
        </CharString>
        <CharString name="uni0916093C094D0938">
          1380 149 callsubr
          1401 421 rmoveto
          -154 hlineto
          -80 callgsubr
          167 hlineto
          34 callgsubr
          -2132 -76 callsubr
          816 vlineto
          -49 callgsubr
          -150 137 -200 -276 123 callgsubr
          429 12 callgsubr
          -200 -123 -94 callgsubr
          -116 hlineto
          -26 -7 8 24 hvcurveto
          189 536 -280 -93 callgsubr
          endchar
        </CharString>
        <CharString name="uni0916094D">
          299 273 223 rmoveto
          254 hlineto
          89 callgsubr
          447 59 -1071 -59 426 -249 vlineto
          78 callsubr
          -201 -371 hlineto
          226 callgsubr
          639 88 rmoveto
          -9 callsubr
          373 59 hlineto
          endchar
        </CharString>
        <CharString name="uni0916094D0916">
          1647 2379 0 callgsubr
          -2399 -76 callsubr
          807 -249 vlineto
          78 callsubr
          -201 -247 290 callsubr
          -132 -30 callsubr
          272 hlineto
          11 176 callgsubr
          -47 vlineto
          136 callgsubr
          467 -349 vlineto
          -27 -9 -8 -27 vhcurveto
          -123 hlineto
          -9 callsubr
          261 hlineto
          16 11 3 8 7 hvcurveto
          -131 197 124 callsubr
        </CharString>
        <CharString name="uni0916094D0924">
          1061 1793 0 callgsubr
          -1813 -76 callsubr
          884 -78 -349 330 callgsubr
          -117 326 callsubr
          106 59 -242 328 callgsubr
          257 hlineto
          12 176 callgsubr
          -47 56 callsubr
          303 vlineto
          24 7 8 26 vhcurveto
          192 -426 286 callsubr
        </CharString>
        <CharString name="uni0916094D0928">
          1372 1465 12 callsubr
          -2124 -76 callsubr
          1194 305 callgsubr
          -133 hlineto
          -9 callsubr
          273 203 callsubr
          23 -14 42 hhcurveto
          427 -74 callgsubr
        </CharString>
        <CharString name="uni0916094D092E">
          1375 1803 485 rmoveto
          -153 78 153 hlineto
          -353 -70 callsubr
          657 196 rmoveto
          -2127 -76 callsubr
          846 315 callsubr
          -197 44 callgsubr
          -124 -30 callsubr
          264 203 callsubr
          24 -14 42 268 callsubr
        </CharString>
        <CharString name="uni0916094D092F">
          1274 1700 173 7 callgsubr
        </CharString>
        <CharString name="uni0916094D0930">
          642 1374 0 callgsubr
          -1394 -59 426 -243 112 callsubr
          -101 159 -201 -371 -3 callsubr
        </CharString>
        <CharString name="uni0916094D0930094D">
          125 callsubr
          639 95 135 callsubr
        </CharString>
        <CharString name="uni0916094D0935">
          1043 1775 0 callgsubr
          -1795 -76 callsubr
          865 -392 vlineto
          -66 callgsubr
          -53 -23 -23 -53 hvcurveto
          -197 44 callgsubr
          -124 -30 callsubr
          264 203 callsubr
          276 callgsubr
        </CharString>
        <CharString name="uni0916094D0936">
          1376 273 223 rmoveto
          254 hlineto
          89 callgsubr
          347 59 -971 -3 callgsubr
        </CharString>
        <CharString name="uni0917">
          374 271 137 rmoveto
          -56 callsubr
          682 485 rmoveto
          -1126 -59 -65 callsubr
          144 116 callsubr
        </CharString>
        <CharString name="uni0917093C">
          374 251 -116 -35 callsubr
          20 124 rmoveto
          -56 callsubr
          682 485 rmoveto
          -1126 -59 -65 callsubr
          144 116 callsubr
        </CharString>
        <CharString name="uni0917093C094D">
          9 250 -116 -35 callsubr
          21 124 rmoveto
          -90 callgsubr
          165 33 callsubr
          185 -197 112 callsubr
          317 485 rmoveto
          -761 -59 476 -138 -324 hlineto
          -98 callgsubr
          -195 -30 callgsubr
          85 vlineto
          endchar
        </CharString>
        <CharString name="uni0917093C094D0930">
          335 603 -292 -35 callsubr
          -340 339 71 callgsubr
        </CharString>
        <CharString name="uni0917093C094D0930094D">
          110 callsubr
          294 -36 rmoveto
          -64 106 -465 -360 rlineto
          234 hlineto
          -40 -195 315 callgsubr
        </CharString>
        <CharString name="uni0917094D">
          6 271 137 rmoveto
          -56 callsubr
          314 485 rmoveto
          -758 -59 209 callsubr
          vlineto
          endchar
        </CharString>
        <CharString name="uni0917094D0917">
          1103 1000 137 rmoveto
          -56 callsubr
          -882 hmoveto
          -56 callsubr
          1411 485 rmoveto
          -1855 -59 -65 callsubr
          529 -137 -324 vlineto
          -98 callgsubr
          -196 -30 callgsubr
          144 116 callsubr
        </CharString>
        <CharString name="uni0917094D0918">
          885 1311 171 rmoveto
          -73 callgsubr
          -248 72 callgsubr
          282 hlineto
          -1040 -426 rmoveto
          -56 callsubr
          1193 485 rmoveto
          -1637 -59 -65 callsubr
          155 vlineto
          30 callgsubr
          406 -82 callsubr
        </CharString>
        <CharString name="uni0917094D091C">
          1092 271 137 rmoveto
          -56 callsubr
          1400 485 rmoveto
          -1844 -59 -65 callsubr
          862 -78 324 callsubr
          vlineto
          -68 callsubr
          140 274 callgsubr
          vlineto
          endchar
        </CharString>
        <CharString name="uni0917094D0923">
          1103 1183 313 callsubr
          394 194 vlineto
          -912 -426 rmoveto
          -56 callsubr
          1411 485 rmoveto
          -1855 -59 -65 callsubr
          146 296 callsubr
          159 116 callsubr
        </CharString>
        <CharString name="uni0917094D0926">
          743 271 137 rmoveto
          -56 callsubr
          942 289 266 callgsubr
          -1495 -59 476 -137 -324 vlineto
          -98 callgsubr
          -196 -30 callgsubr
          510 -78 -300 vlineto
          -53 -24 -23 -53 hvcurveto
          -255 -36 callsubr
        </CharString>
        <CharString name="uni0917094D0927">
          1025 106 callgsubr
          1777 hmoveto
          -306 232 callgsubr
          -374 hlineto
          -77 callsubr
          533 -82 callsubr
        </CharString>
        <CharString name="uni0917094D0927094D092F">
          1613 36 callsubr
          2059 -449 92 callgsubr
          -948 -59 259 312 callgsubr
          166 callsubr
          -354 26 callgsubr
          -106 -102 callsubr
          514 58 callsubr
          512 49 callgsubr
        </CharString>
        <CharString name="uni0917094D0927094D0935">
          1398 36 callsubr
          2150 hmoveto
          -726 -59 420 -392 hlineto
          -66 callgsubr
          -53 -23 -23 -53 hvcurveto
          -239 vlineto
          -24 -8 -9 -26 vhcurveto
          -362 26 callgsubr
          -106 -102 callsubr
          522 -5 callsubr
        </CharString>
        <CharString name="uni0917094D0928">
          1072 1165 169 rmoveto
          -64 callsubr
          -127 -107 callgsubr
          160 hlineto
          -894 -289 rmoveto
          -56 callsubr
          1380 485 rmoveto
          -1824 -59 -65 callsubr
          842 -78 -642 vlineto
          -53 -24 -23 -53 hvcurveto
          -255 40 callsubr
        </CharString>
        <CharString name="uni0917094D0928094D092F">
          1722 1179 239 callsubr
          340 hmoveto
          59 -649 -72 callsubr
          vlineto
          776 -253 -104 callsubr
          -1877 -426 rmoveto
          -56 callsubr
          2030 485 rmoveto
          -2474 -59 -65 callsubr
          1109 vlineto
          -97 callgsubr
        </CharString>
        <CharString name="uni0917094D092C">
          831 1021 250 callgsubr
          -952 hmoveto
          -56 callsubr
          1139 485 rmoveto
          -1583 -59 -65 callsubr
          601 -244 vlineto
          152 callgsubr
        </CharString>
        <CharString name="uni0917094D092D">
          1116 106 callgsubr
          1211 -453 19 callsubr
          657 309 rmoveto
          -306 -250 -151 174 hlineto
          -42 callsubr
          151 -313 -99 callsubr
        </CharString>
        <CharString name="uni0917094D092D094D092F">
          1699 36 callsubr
          2145 -449 122 callgsubr
          -28 vhcurveto
          -353 -58 callgsubr
          144 195 vlineto
          53 24 23 329 callsubr
          -953 -394 19 callsubr
          1259 309 rmoveto
          -959 -59 270 hlineto
          26 6 3 callsubr
          -126 vlineto
          167 callgsubr
          -370 174 hlineto
          -42 callsubr
          130 -159 -102 callsubr
          512 -47 callgsubr
          -99 callsubr
        </CharString>
        <CharString name="uni0917094D092E">
          1101 1529 485 359 callsubr
          -353 -394 rmoveto
          -24 -6 -8 -26 vhcurveto
          -128 -107 callgsubr
          160 hlineto
          -905 -289 rmoveto
          -56 callsubr
          1409 485 rmoveto
          -1853 -59 -65 callsubr
          520 -78 -303 vlineto
          -53 -24 -23 -53 hvcurveto
          -255 9 callgsubr
        </CharString>
        <CharString name="uni0917094D092F">
          984 1410 173 -104 callsubr
          -1139 -426 rmoveto
          -56 callsubr
          1292 485 rmoveto
          -1736 -59 -65 callsubr
          371 vlineto
          -97 callgsubr
        </CharString>
        <CharString name="uni0917094D0930">
          358 263 176 71 callgsubr
        </CharString>
        <CharString name="uni0917094D0930094D">
          110 callsubr
          230 70 rmoveto
          -465 -360 rlineto
          234 hlineto
          295 254 rlineto
          endchar
        </CharString>
        <CharString name="uni0917094D0930094D092F">
          981 1408 173 -104 callsubr
          -1145 -387 80 callgsubr
          1299 446 rmoveto
          -1734 57 callsubr
          370 385 170 callgsubr
          -176 hlineto
          -373 -289 rlineto
          234 hlineto
          204 175 rlineto
          4 4 0 4 hhcurveto
          -92 callgsubr
        </CharString>
        <CharString name="uni0917094D0932">
          1135 271 137 rmoveto
          -56 callsubr
          1444 485 rmoveto
          -1888 -59 -65 callsubr
          905 -78 -213 vlineto
          112 callgsubr
          -4 hlineto
          -105 callgsubr
          146 -426 201 563 106 hlineto
          endchar
        </CharString>
        <CharString name="uni0917094D0935">
          765 271 137 rmoveto
          -56 callsubr
          1073 485 rmoveto
          -1517 -59 -65 callsubr
          535 -392 vlineto
          -66 callgsubr
          -53 -23 -23 -53 hvcurveto
          -255 -50 callsubr
        </CharString>
        <CharString name="uni0917094D0938">
          1112 1538 339 rmoveto
          -154 hlineto
          -80 callgsubr
          167 hlineto
          -1267 -426 rmoveto
          -56 callsubr
          1420 485 rmoveto
          -1864 -59 -65 callsubr
          496 vlineto
          -101 callsubr
          536 -280 -93 callgsubr
          endchar
        </CharString>
        <CharString name="uni0918">
          163 589 171 rmoveto
          -73 callgsubr
          -248 72 callgsubr
          282 hlineto
          34 callgsubr
          -915 -59 109 hlineto
          30 callgsubr
          406 -82 callsubr
        </CharString>
        <CharString name="uni0918094D">
          -223 307 236 callgsubr
          117 -74 callsubr
          138 59 -138 -53 callsubr
          119 -74 callsubr
          239 59 -566 -59 109 hlineto
          30 callgsubr
          486 59 hlineto
          endchar
        </CharString>
        <CharString name="uni0918094D0928">
          869 1295 485 rmoveto
          339 callgsubr
          -239 -1 44 callgsubr
          -234 72 callgsubr
          988 hlineto
          5 callgsubr
          -1621 -59 109 hlineto
          30 callgsubr
          394 hlineto
          25 17 5 11 10 hvcurveto
          -11 13 18 -5 25 268 callgsubr
        </CharString>
        <CharString name="uni0918094D092E">
          881 1309 485 359 callsubr
          -353 -394 rmoveto
          -24 -6 -8 -26 vhcurveto
          -128 -107 callgsubr
          160 hlineto
          -380 -256 rmoveto
          35 callgsubr
          -235 72 callgsubr
          649 143 callgsubr
          1037 213 rmoveto
          -1633 -59 109 hlineto
          30 callgsubr
          395 192 callsubr
        </CharString>
        <CharString name="uni0918094D092F">
          779 1206 173 -104 callsubr
          -899 -426 rmoveto
          -90 callgsubr
          117 -74 callsubr
          138 59 -138 -53 callsubr
          119 -74 callsubr
          516 7 callsubr
          166 callsubr
          970 485 rmoveto
          -1532 -59 109 hlineto
          30 callgsubr
          395 58 callsubr
          -92 callgsubr
        </CharString>
        <CharString name="uni0918094D0930">
          167 593 188 rmoveto
          -73 callgsubr
          -247 -10 callgsubr
          100 -74 callsubr
          138 59 -138 -53 callsubr
          119 -74 callsubr
          281 hlineto
          34 callgsubr
          -919 -59 113 hlineto
          350 callgsubr
          -112 vlineto
          277 callgsubr
          223 hlineto
          -171 -172 rlineto
          213 hlineto
          173 184 rlineto
          -107 -99 callsubr
        </CharString>
        <CharString name="uni0918094D0930094D">
          -200 79 415 rmoveto
          277 callgsubr
          221 hlineto
          -171 -172 rlineto
          215 hlineto
          177 188 rlineto
          47 43 -332 -10 callgsubr
          100 -74 callsubr
          138 59 -138 -53 callsubr
          119 -74 callsubr
          220 59 -552 -59 113 hlineto
          350 callgsubr
          endchar
        </CharString>
        <CharString name="uni0919">
          140 688 296 56 callgsubr
        </CharString>
        <CharString name="uni0919094D">
          140 253 -60 62 callsubr
          234 356 56 callgsubr
        </CharString>
        <CharString name="uni0919094D0930">
          142 690 296 rmoveto
          132 110 -132 hlineto
          -710 216 rmoveto
          -59 445 -78 -280 161 callgsubr
          -82 vlineto
          -53 23 -24 53 vhcurveto
          271 hlineto
          -67 callsubr
          -112 306 callgsubr
          -8 7 25 hvcurveto
          64 -199 -79 -80 callsubr
          47 hlineto
          -93 -162 rlineto
          190 hlineto
          72 156 73 -156 rlineto
          190 hlineto
          -92 162 rlineto
          38 -104 callgsubr
          144 -75 callgsubr
          -271 222 callgsubr
          51 vlineto
          26 8 -20 callsubr
          323 137 249 59 hlineto
          endchar
        </CharString>
        <CharString name="uni091A">
          343 callsubr
          -392 hlineto
          -26 -8 -8 -26 vhcurveto
          -193 hlineto
          -5 callgsubr
          351 -82 callsubr
        </CharString>
        <CharString name="uni091A094D">
          -247 521 0 callgsubr
          -541 -59 541 hlineto
          -188 -426 rmoveto
          -5 callgsubr
          430 59 hlineto
          endchar
        </CharString>
        <CharString name="uni091A094D091A">
          610 1342 0 callgsubr
          -1362 -59 1043 237 callsubr
          -401 -59 86 246 callsubr
          -220 44 callgsubr
          -197 -91 callgsubr
          225 317 callgsubr
          95 59 -408 -59 99 246 callsubr
          -236 -102 callsubr
          357 45 callsubr
          351 -40 callgsubr
          563 119 vlineto
          endchar
        </CharString>
        <CharString name="uni091A094D091B">
          829 1114 485 rmoveto
          -89 -53 callgsubr
          308 hlineto
          448 hmoveto
          59 -1582 -59 607 163 callsubr
          -71 44 callgsubr
          -206 hlineto
          -5 callgsubr
          366 hlineto
          12 341 callsubr
          743 154 callgsubr
          -92 78 hlineto
          endchar
        </CharString>
        <CharString name="uni091A094D091B094D0935">
          823 1118 48 callgsubr
          -1575 -59 592 163 callsubr
          -71 44 callgsubr
          -191 hlineto
          -5 callgsubr
          351 hlineto
          12 11 1 3 8 hvcurveto
          -41 5 25 -18 46 hhcurveto
          144 callsubr
        </CharString>
</ttFont>
